<?xml version="1.0" encoding="UTF-8"?>
<svg width="12px" height="12px" viewBox="0 0 12 12" version="1.1" xmlns="http://www.w3.org/2000/svg" xmlns:xlink="http://www.w3.org/1999/xlink">
    <!-- Generator: Sketch 52.5 (67469) - http://www.bohemiancoding.com/sketch -->
    <title>Combined Shape</title>
    <desc>Created with Sketch.</desc>
    <g id="Page-2" stroke="none" stroke-width="1" fill="none" fill-rule="evenodd">
        <g id="4-versia" transform="translate(-1594.000000, -29.000000)" fill="#333333">
            <path d="M1594.5,29 L1595.5,29 C1595.77614,29 1596,29.2238576 1596,29.5 L1596,30.5 C1596,30.7761424 1595.77614,31 1595.5,31 L1594.5,31 C1594.22386,31 1594,30.7761424 1594,30.5 L1594,29.5 C1594,29.2238576 1594.22386,29 1594.5,29 Z M1594.5,34 L1595.5,34 C1595.77614,34 1596,34.2238576 1596,34.5 L1596,35.5 C1596,35.7761424 1595.77614,36 1595.5,36 L1594.5,36 C1594.22386,36 1594,35.7761424 1594,35.5 L1594,34.5 C1594,34.2238576 1594.22386,34 1594.5,34 Z M1594.5,39 L1595.5,39 C1595.77614,39 1596,39.2238576 1596,39.5 L1596,40.5 C1596,40.7761424 1595.77614,41 1595.5,41 L1594.5,41 C1594.22386,41 1594,40.7761424 1594,40.5 L1594,39.5 C1594,39.2238576 1594.22386,39 1594.5,39 Z M1599.5,29 L1600.5,29 C1600.77614,29 1601,29.2238576 1601,29.5 L1601,30.5 C1601,30.7761424 1600.77614,31 1600.5,31 L1599.5,31 C1599.22386,31 1599,30.7761424 1599,30.5 L1599,29.5 C1599,29.2238576 1599.22386,29 1599.5,29 Z M1599.5,34 L1600.5,34 C1600.77614,34 1601,34.2238576 1601,34.5 L1601,35.5 C1601,35.7761424 1600.77614,36 1600.5,36 L1599.5,36 C1599.22386,36 1599,35.7761424 1599,35.5 L1599,34.5 C1599,34.2238576 1599.22386,34 1599.5,34 Z M1599.5,39 L1600.5,39 C1600.77614,39 1601,39.2238576 1601,39.5 L1601,40.5 C1601,40.7761424 1600.77614,41 1600.5,41 L1599.5,41 C1599.22386,41 1599,40.7761424 1599,40.5 L1599,39.5 C1599,39.2238576 1599.22386,39 1599.5,39 Z M1604.5,29 L1605.5,29 C1605.77614,29 1606,29.2238576 1606,29.5 L1606,30.5 C1606,30.7761424 1605.77614,31 1605.5,31 L1604.5,31 C1604.22386,31 1604,30.7761424 1604,30.5 L1604,29.5 C1604,29.2238576 1604.22386,29 1604.5,29 Z M1604.5,34 L1605.5,34 C1605.77614,34 1606,34.2238576 1606,34.5 L1606,35.5 C1606,35.7761424 1605.77614,36 1605.5,36 L1604.5,36 C1604.22386,36 1604,35.7761424 1604,35.5 L1604,34.5 C1604,34.2238576 1604.22386,34 1604.5,34 Z M1604.5,39 L1605.5,39 C1605.77614,39 1606,39.2238576 1606,39.5 L1606,40.5 C1606,40.7761424 1605.77614,41 1605.5,41 L1604.5,41 C1604.22386,41 1604,40.7761424 1604,40.5 L1604,39.5 C1604,39.2238576 1604.22386,39 1604.5,39 Z" id="Combined-Shape"></path>
        </g>
    </g>
</svg>