<?xml version="1.0" encoding="UTF-8"?>
<svg width="48px" height="32px" viewBox="0 0 48 32" version="1.1" xmlns="http://www.w3.org/2000/svg" xmlns:xlink="http://www.w3.org/1999/xlink">
    <!-- Generator: Sketch 52.5 (67469) - http://www.bohemiancoding.com/sketch -->
    <title>Group 9</title>
    <desc>Created with Sketch.</desc>
    <g id="inputs" stroke="none" stroke-width="1" fill="none" fill-rule="evenodd">
        <g transform="translate(-1622.000000, -1323.000000)" id="Group-9">
            <g transform="translate(1622.000000, 1323.000000)">
                <path d="M3,0 L45,0 C46.6568542,-3.04359188e-16 48,1.34314575 48,3 L48,29 C48,30.6568542 46.6568542,32 45,32 L3,32 C1.34314575,32 2.02906125e-16,30.6568542 0,29 L0,3 C-2.02906125e-16,1.34314575 1.34314575,3.04359188e-16 3,0 Z" id="Rectangle" fill="#F1F1F1" fill-rule="nonzero"></path>
                <g id="arca" transform="translate(8.000000, 11.000000)">
                    <path d="M9.65932584,9.33465169 L9.72440449,9.03562547 C9.64410487,9.03346816 9.56200749,9.01177528 9.47727341,8.97066667 C9.39493633,8.9272809 9.32350562,8.87083146 9.26501873,8.80155805 C9.20437453,8.73444195 9.17189513,8.66073408 9.16530337,8.58055431 L8.56725094,0.987445693 C8.55646442,0.853093633 8.51751311,0.738277154 8.45027715,0.645153558 C8.3851985,0.554187266 8.29842697,0.482516854 8.19451685,0.43493633 C8.08820974,0.387116105 7.97555056,0.363385768 7.85210487,0.363385768 L3.97758801,0.363385768 L3.89956554,0.662411985 C3.96236704,0.662411985 4.02313109,0.684104869 4.08149813,0.72305618 C4.14010487,0.762127341 4.18996255,0.809827715 4.22891386,0.87059176 C4.26798502,0.929078652 4.2875206,0.989722846 4.2896779,1.05252434 C4.2896779,1.09591011 4.2875206,1.13486142 4.28092884,1.16518352 C4.27445693,1.19346816 4.26367041,1.22151311 4.25072659,1.2475206 L0.428104869,8.65857678 C0.408689139,8.69980524 0.393468165,8.74091386 0.380404494,8.78645693 C0.369498127,8.83188015 0.363146067,8.87083146 0.363146067,8.90558801 C0.365303371,9.03131086 0.412883895,9.13306367 0.510441948,9.2133633 C0.605842697,9.29126592 0.737917603,9.33249438 0.909183521,9.33465169 L3.73057678,9.33465169 L3.79553558,9.03562547 C3.73489139,9.03562547 3.67628464,9.0225618 3.62007491,8.99667416 C3.56590262,8.97066667 3.52035955,8.93602996 3.48572285,8.89264419 C3.45096629,8.84925843 3.43370787,8.80155805 3.43155056,8.74954307 C3.43155056,8.73444195 3.43155056,8.71059176 3.43574532,8.67583521 C3.43802247,8.64131835 3.44461423,8.6087191 3.4574382,8.58055431 L3.99053184,7.51448689 L5.49884644,7.51448689 L5.61570037,8.84062921 C5.6331985,9.02699625 5.696,9.15475655 5.80446442,9.22846442 C5.91268914,9.30217228 6.0795206,9.33680899 6.3049588,9.33465169 L9.65932584,9.33465169 Z M5.39481648,4.31592509 L5.49884644,5.77222472 L4.75769288,5.77222472 L5.39481648,4.31592509 Z" id="Fill-3" fill="#3D3777"></path>
                    <path d="M9.65932584,9.33465169 L9.72440449,9.03562547 C9.64410487,9.03346816 9.56200749,9.01177528 9.47727341,8.97066667 C9.39493633,8.9272809 9.32350562,8.87083146 9.26501873,8.80155805 C9.20437453,8.73444195 9.17189513,8.66073408 9.16530337,8.58055431 L8.56725094,0.987445693 C8.55646442,0.853093633 8.51751311,0.738277154 8.45027715,0.645153558 C8.3851985,0.554187266 8.29842697,0.482516854 8.19451685,0.43493633 C8.08820974,0.387116105 7.97555056,0.363385768 7.85210487,0.363385768 L3.97758801,0.363385768 L3.89956554,0.662411985 C3.96236704,0.662411985 4.02313109,0.684104869 4.08149813,0.72305618 C4.14010487,0.762127341 4.18996255,0.809827715 4.22891386,0.87059176 C4.26798502,0.929078652 4.2875206,0.989722846 4.2896779,1.05252434 C4.2896779,1.09591011 4.2875206,1.13486142 4.28092884,1.16518352 C4.27445693,1.19346816 4.26367041,1.22151311 4.25072659,1.2475206 L0.428104869,8.65857678 C0.408689139,8.69980524 0.393468165,8.74091386 0.380404494,8.78645693 C0.369498127,8.83188015 0.363146067,8.87083146 0.363146067,8.90558801 C0.365303371,9.03131086 0.412883895,9.13306367 0.510441948,9.2133633 C0.605842697,9.29126592 0.737917603,9.33249438 0.909183521,9.33465169 L3.73057678,9.33465169 L3.79553558,9.03562547 C3.73489139,9.03562547 3.67628464,9.0225618 3.62007491,8.99667416 C3.56590262,8.97066667 3.52035955,8.93602996 3.48572285,8.89264419 C3.45096629,8.84925843 3.43370787,8.80155805 3.43155056,8.74954307 C3.43155056,8.73444195 3.43155056,8.71059176 3.43574532,8.67583521 C3.43802247,8.64131835 3.44461423,8.6087191 3.4574382,8.58055431 L3.99053184,7.51448689 L5.49884644,7.51448689 L5.61570037,8.84062921 C5.6331985,9.02699625 5.696,9.15475655 5.80446442,9.22846442 C5.91268914,9.30217228 6.0795206,9.33680899 6.3049588,9.33465169 L9.65932584,9.33465169 Z M5.39481648,4.31592509 L5.49884644,5.77222472 L4.75769288,5.77222472 L5.39481648,4.31592509 Z" id="Stroke-4"></path>
                    <path d="M14.2063221,4.91409738 C14.2366442,4.77758801 14.3060375,4.67355805 14.4186966,4.60428464 C14.5291985,4.53261423 14.6961498,4.49797753 14.9214682,4.49797753 L15.4804494,4.49797753 C15.7620974,4.50025468 15.9984419,4.4482397 16.1914007,4.34408989 C16.3819625,4.24005993 16.5184719,4.07322846 16.5986517,3.84791011 L16.9757004,2.23568539 L15.8445543,2.23568539 C15.677603,2.23568539 15.536779,2.25953558 15.4241199,2.30723596 C15.3093034,2.35481648 15.2117453,2.42432959 15.1272509,2.51086142 C15.0449139,2.59979026 14.9647341,2.70597753 14.8888689,2.82726592 C14.8131236,2.95083146 14.7286292,3.08734082 14.6355056,3.23691386 L14.4794607,3.23691386 C14.5053483,3.14594757 14.5248839,3.06121348 14.5379476,2.98546816 C14.5507715,2.9117603 14.5573633,2.8468015 14.5573633,2.79478652 C14.5595206,2.64317603 14.5097828,2.5260824 14.4100674,2.44158801 C14.3081948,2.35709363 14.1455581,2.31370787 13.9202397,2.31370787 L11.0338876,2.31370787 L10.9689288,2.61285393 C11.0231011,2.61285393 11.0772734,2.63011236 11.133603,2.66247191 C11.1877753,2.69291386 11.2353558,2.73833708 11.2722697,2.79694382 C11.311221,2.85543071 11.3307566,2.92482397 11.3329139,3.00272659 C11.3329139,3.0395206 11.3329139,3.07871161 11.3307566,3.11538577 C11.3264419,3.15014232 11.3198502,3.19137079 11.3070262,3.23691386 L10.032779,8.71059176 C10.0197154,8.76907865 10.0110861,8.82325094 10.0044944,8.87083146 C9.99802247,8.91865169 9.99370787,8.957603 9.99370787,8.98361049 C9.99586517,9.08332584 10.0348165,9.16578277 10.1085243,9.23277903 C10.1843895,9.29785768 10.2842247,9.33249438 10.4097079,9.33465169 L13.6602846,9.33465169 L13.7383071,9.03562547 C13.6797004,9.03562547 13.6233708,9.01620974 13.5693184,8.97701873 C13.5128689,8.94034457 13.4674457,8.89048689 13.4305318,8.8298427 C13.393618,8.76907865 13.3763596,8.70411985 13.3743221,8.63256929 C13.3743221,8.59349813 13.3743221,8.55670412 13.3763596,8.52422472 C13.3763596,8.48958801 13.380794,8.45698876 13.3871461,8.42462921 L14.2063221,4.91409738 Z" id="Fill-5" fill="#3D3777"></path>
                    <path d="M14.2063221,4.91409738 C14.2366442,4.77758801 14.3060375,4.67355805 14.4186966,4.60428464 C14.5291985,4.53261423 14.6961498,4.49797753 14.9214682,4.49797753 L15.4804494,4.49797753 C15.7620974,4.50025468 15.9984419,4.4482397 16.1914007,4.34408989 C16.3819625,4.24005993 16.5184719,4.07322846 16.5986517,3.84791011 L16.9757004,2.23568539 L15.8445543,2.23568539 C15.677603,2.23568539 15.536779,2.25953558 15.4241199,2.30723596 C15.3093034,2.35481648 15.2117453,2.42432959 15.1272509,2.51086142 C15.0449139,2.59979026 14.9647341,2.70597753 14.8888689,2.82726592 C14.8131236,2.95083146 14.7286292,3.08734082 14.6355056,3.23691386 L14.4794607,3.23691386 C14.5053483,3.14594757 14.5248839,3.06121348 14.5379476,2.98546816 C14.5507715,2.9117603 14.5573633,2.8468015 14.5573633,2.79478652 C14.5595206,2.64317603 14.5097828,2.5260824 14.4100674,2.44158801 C14.3081948,2.35709363 14.1455581,2.31370787 13.9202397,2.31370787 L11.0338876,2.31370787 L10.9689288,2.61285393 C11.0231011,2.61285393 11.0772734,2.63011236 11.133603,2.66247191 C11.1877753,2.69291386 11.2353558,2.73833708 11.2722697,2.79694382 C11.311221,2.85543071 11.3307566,2.92482397 11.3329139,3.00272659 C11.3329139,3.0395206 11.3329139,3.07871161 11.3307566,3.11538577 C11.3264419,3.15014232 11.3198502,3.19137079 11.3070262,3.23691386 L10.032779,8.71059176 C10.0197154,8.76907865 10.0110861,8.82325094 10.0044944,8.87083146 C9.99802247,8.91865169 9.99370787,8.957603 9.99370787,8.98361049 C9.99586517,9.08332584 10.0348165,9.16578277 10.1085243,9.23277903 C10.1843895,9.29785768 10.2842247,9.33249438 10.4097079,9.33465169 L13.6602846,9.33465169 L13.7383071,9.03562547 C13.6797004,9.03562547 13.6233708,9.01620974 13.5693184,8.97701873 C13.5128689,8.94034457 13.4674457,8.89048689 13.4305318,8.8298427 C13.393618,8.76907865 13.3763596,8.70411985 13.3743221,8.63256929 C13.3743221,8.59349813 13.3743221,8.55670412 13.3763596,8.52422472 C13.3763596,8.48958801 13.380794,8.45698876 13.3871461,8.42462921 L14.2063221,4.91409738 Z" id="Stroke-6"></path>
                    <path d="M20.5993708,7.18945318 C20.3263521,7.18717603 20.139985,7.11994007 20.0382322,6.98558801 C19.9363596,6.84907865 19.9169438,6.65851685 19.9753109,6.40934831 L20.6903371,3.32788015 C20.7229363,3.14798502 20.7726742,2.99409738 20.8421873,2.86202247 C20.9114607,2.72970787 21.011176,2.62795506 21.1410936,2.55424719 C21.2712509,2.48053933 21.4467116,2.44374532 21.6655581,2.44374532 L23.004764,2.44374532 C23.2237303,2.44374532 23.3925993,2.41126592 23.5161648,2.34834457 C23.6397303,2.28554307 23.7306966,2.19661423 23.7934981,2.08395506 C23.8564195,1.96913858 23.904,1.83262921 23.9409139,1.67658427 C23.971236,1.55949064 24.0059925,1.42298127 24.0449438,1.26274157 C24.0817378,1.10453933 24.1163745,0.944179775 24.1511311,0.783820225 C24.1834906,0.623460674 24.209618,0.482516854 24.2268764,0.363385768 L19.8063221,0.363385768 C19.5159251,0.363385768 19.2299625,0.413243446 18.9525094,0.510801498 C18.675176,0.610397004 18.415221,0.764404494 18.1724045,0.968029963 C17.9318652,1.17177528 17.7194906,1.43173034 17.5375581,1.74585768 C17.3555056,2.06010487 17.2146816,2.43068165 17.1149663,2.85962547 L16.3999401,5.99310861 C16.3066966,6.38322097 16.2438951,6.74948315 16.2112959,7.08961798 C16.1766592,7.42999251 16.1897228,7.73752809 16.2460524,8.01282397 C16.302382,8.28811985 16.4193558,8.52206742 16.5949363,8.71922097 C16.770397,8.91637453 17.0195655,9.06822472 17.3445993,9.17441199 C17.6697528,9.2804794 18.0813184,9.33249438 18.5840899,9.33465169 L21.5095131,9.33465169 C21.8281948,9.33465169 22.0773633,9.29989513 22.261573,9.23062172 C22.4456629,9.16350562 22.5821723,9.06594757 22.6731386,8.94034457 C22.7642247,8.81462172 22.8271461,8.66301124 22.8616629,8.48958801 L23.2388315,6.85135581 L22.9398052,6.85135581 C22.9159551,6.92074906 22.8682547,6.98139326 22.7945468,7.03125094 C22.7209588,7.08098876 22.6386217,7.11994007 22.543221,7.14822472 C22.4500974,7.17423221 22.3611685,7.18945318 22.2766742,7.18945318 L20.5993708,7.18945318 Z" id="Fill-7" fill="#3D3777"></path>
                    <path d="M20.5993708,7.18945318 C20.3263521,7.18717603 20.139985,7.11994007 20.0382322,6.98558801 C19.9363596,6.84907865 19.9169438,6.65851685 19.9753109,6.40934831 L20.6903371,3.32788015 C20.7229363,3.14798502 20.7726742,2.99409738 20.8421873,2.86202247 C20.9114607,2.72970787 21.011176,2.62795506 21.1410936,2.55424719 C21.2712509,2.48053933 21.4467116,2.44374532 21.6655581,2.44374532 L23.004764,2.44374532 C23.2237303,2.44374532 23.3925993,2.41126592 23.5161648,2.34834457 C23.6397303,2.28554307 23.7306966,2.19661423 23.7934981,2.08395506 C23.8564195,1.96913858 23.904,1.83262921 23.9409139,1.67658427 C23.971236,1.55949064 24.0059925,1.42298127 24.0449438,1.26274157 C24.0817378,1.10453933 24.1163745,0.944179775 24.1511311,0.783820225 C24.1834906,0.623460674 24.209618,0.482516854 24.2268764,0.363385768 L19.8063221,0.363385768 C19.5159251,0.363385768 19.2299625,0.413243446 18.9525094,0.510801498 C18.675176,0.610397004 18.415221,0.764404494 18.1724045,0.968029963 C17.9318652,1.17177528 17.7194906,1.43173034 17.5375581,1.74585768 C17.3555056,2.06010487 17.2146816,2.43068165 17.1149663,2.85962547 L16.3999401,5.99310861 C16.3066966,6.38322097 16.2438951,6.74948315 16.2112959,7.08961798 C16.1766592,7.42999251 16.1897228,7.73752809 16.2460524,8.01282397 C16.302382,8.28811985 16.4193558,8.52206742 16.5949363,8.71922097 C16.770397,8.91637453 17.0195655,9.06822472 17.3445993,9.17441199 C17.6697528,9.2804794 18.0813184,9.33249438 18.5840899,9.33465169 L21.5095131,9.33465169 C21.8281948,9.33465169 22.0773633,9.29989513 22.261573,9.23062172 C22.4456629,9.16350562 22.5821723,9.06594757 22.6731386,8.94034457 C22.7642247,8.81462172 22.8271461,8.66301124 22.8616629,8.48958801 L23.2388315,6.85135581 L22.9398052,6.85135581 C22.9159551,6.92074906 22.8682547,6.98139326 22.7945468,7.03125094 C22.7209588,7.08098876 22.6386217,7.11994007 22.543221,7.14822472 C22.4500974,7.17423221 22.3611685,7.18945318 22.2766742,7.18945318 L20.5993708,7.18945318 Z" id="Stroke-8"></path>
                    <path d="M27.017588,6.73426217 C27.0522247,6.56755056 27.0976479,6.43967041 27.1540974,6.35289888 C27.2082697,6.26624719 27.271191,6.2077603 27.3404644,6.1774382 C27.4118951,6.14927341 27.485603,6.13405243 27.5636255,6.13620974 C27.6394906,6.13620974 27.7022921,6.13620974 27.7478352,6.13620974 C27.7933783,6.13620974 27.8323296,6.13620974 27.8626517,6.13620974 L27.589633,7.31937079 C27.5700974,7.41908614 27.5289888,7.49926592 27.4683446,7.56206742 C27.4077004,7.62271161 27.3295581,7.65531086 27.2385918,7.65746816 L27.1476255,7.65746816 C27.0565393,7.65746816 26.9914607,7.64020974 26.9503521,7.60101873 C26.9070861,7.56422472 26.8874307,7.49926592 26.8874307,7.41045693 C26.8874307,7.38217228 26.8897079,7.34981273 26.8962996,7.30846442 C26.9004944,7.26951311 26.9070861,7.22840449 26.9135581,7.18945318 L27.017588,6.73426217 Z M30.3720749,2.31370787 L25.9383371,2.31370787 L25.6654382,3.41884644 C25.6523745,3.45779775 25.6437453,3.50118352 25.6371536,3.5488839 C25.6306816,3.59430712 25.626367,3.63769288 25.626367,3.6788015 C25.6240899,3.83484644 25.6674757,3.94966292 25.760839,4.02337079 C25.8518052,4.09707865 26.005573,4.13399251 26.2244195,4.13399251 L27.953618,4.13399251 C28.0773034,4.13183521 28.1638352,4.1621573 28.2136929,4.22076404 C28.2636704,4.28140824 28.2722996,4.38316105 28.2397004,4.52398502 C28.2136929,4.63232959 28.1616779,4.71250936 28.08797,4.76236704 C28.0142622,4.81210487 27.9211386,4.83595506 27.8106367,4.83595506 L26.0945019,4.83595506 C25.7043895,4.8317603 25.3598202,4.90319101 25.060794,5.05060674 C24.7617678,5.19802247 24.5061273,5.4385618 24.293633,5.77426217 C24.0812584,6.11020225 23.9101124,6.5588015 23.7800749,7.12437453 C23.7628165,7.22612734 23.7454382,7.33243446 23.7259026,7.44521348 C23.7085243,7.55547566 23.6933034,7.66394007 23.6826367,7.76569288 C23.669573,7.8698427 23.6629813,7.95865169 23.6629813,8.03451685 C23.6653783,8.40077903 23.721588,8.68470412 23.8320899,8.88605243 C23.9427116,9.0896779 24.0986367,9.23062172 24.3001049,9.31092135 C24.5016929,9.39098127 24.7400749,9.42777528 25.0152509,9.42561798 L25.5483446,9.42561798 C25.8062622,9.42561798 26.0228315,9.41267416 26.1961348,9.38223221 C26.3718352,9.35191011 26.5191311,9.30217228 26.6405393,9.23062172 C26.7619476,9.15919101 26.8701723,9.06379026 26.9677303,8.94250187 C27.0631311,8.82109363 27.1627266,8.67164045 27.2645993,8.48958801 L27.4205243,8.48958801 L27.381573,8.65857678 C27.3534082,8.77770787 27.3534082,8.88832959 27.3773783,8.9900824 C27.4032659,9.09195506 27.4639101,9.17441199 27.5593109,9.23709363 C27.6547116,9.29989513 27.7954157,9.33249438 27.9797453,9.33465169 L30.9181124,9.33465169 L30.9830712,9.03562547 C30.9288989,9.03562547 30.870412,9.02903371 30.8096479,9.01393258 C30.7469663,8.99667416 30.6949513,8.96838951 30.6494082,8.92296629 C30.6060225,8.87958052 30.5821723,8.81881648 30.5801348,8.7364794 C30.5801348,8.68674157 30.5843296,8.64335581 30.5908015,8.60440449 C30.5973933,8.56317603 30.6060225,8.5134382 30.6190861,8.45051685 L31.6201948,4.13399251 C31.6332584,4.07982022 31.6439251,4.01474157 31.6549513,3.94103371 C31.6635805,3.86744569 31.6722097,3.79373783 31.6766442,3.72002996 C31.6831161,3.6463221 31.6852734,3.5856779 31.6852734,3.53582022 C31.6831161,3.27143071 31.6246292,3.04838951 31.5118502,2.86621723 C31.399191,2.68428464 31.2453034,2.54777528 31.0481498,2.45465169 C30.8509963,2.36140824 30.6255581,2.31370787 30.3720749,2.31370787 Z" id="Fill-9" fill="#3D3777"></path>
                    <path d="M27.017588,6.73426217 C27.0522247,6.56755056 27.0976479,6.43967041 27.1540974,6.35289888 C27.2082697,6.26624719 27.271191,6.2077603 27.3404644,6.1774382 C27.4118951,6.14927341 27.485603,6.13405243 27.5636255,6.13620974 C27.6394906,6.13620974 27.7022921,6.13620974 27.7478352,6.13620974 C27.7933783,6.13620974 27.8323296,6.13620974 27.8626517,6.13620974 L27.589633,7.31937079 C27.5700974,7.41908614 27.5289888,7.49926592 27.4683446,7.56206742 C27.4077004,7.62271161 27.3295581,7.65531086 27.2385918,7.65746816 L27.1476255,7.65746816 C27.0565393,7.65746816 26.9914607,7.64020974 26.9503521,7.60101873 C26.9070861,7.56422472 26.8874307,7.49926592 26.8874307,7.41045693 C26.8874307,7.38217228 26.8897079,7.34981273 26.8962996,7.30846442 C26.9004944,7.26951311 26.9070861,7.22840449 26.9135581,7.18945318 L27.017588,6.73426217 Z M30.3720749,2.31370787 L25.9383371,2.31370787 L25.6654382,3.41884644 C25.6523745,3.45779775 25.6437453,3.50118352 25.6371536,3.5488839 C25.6306816,3.59430712 25.626367,3.63769288 25.626367,3.6788015 C25.6240899,3.83484644 25.6674757,3.94966292 25.760839,4.02337079 C25.8518052,4.09707865 26.005573,4.13399251 26.2244195,4.13399251 L27.953618,4.13399251 C28.0773034,4.13183521 28.1638352,4.1621573 28.2136929,4.22076404 C28.2636704,4.28140824 28.2722996,4.38316105 28.2397004,4.52398502 C28.2136929,4.63232959 28.1616779,4.71250936 28.08797,4.76236704 C28.0142622,4.81210487 27.9211386,4.83595506 27.8106367,4.83595506 L26.0945019,4.83595506 C25.7043895,4.8317603 25.3598202,4.90319101 25.060794,5.05060674 C24.7617678,5.19802247 24.5061273,5.4385618 24.293633,5.77426217 C24.0812584,6.11020225 23.9101124,6.5588015 23.7800749,7.12437453 C23.7628165,7.22612734 23.7454382,7.33243446 23.7259026,7.44521348 C23.7085243,7.55547566 23.6933034,7.66394007 23.6826367,7.76569288 C23.669573,7.8698427 23.6629813,7.95865169 23.6629813,8.03451685 C23.6653783,8.40077903 23.721588,8.68470412 23.8320899,8.88605243 C23.9427116,9.0896779 24.0986367,9.23062172 24.3001049,9.31092135 C24.5016929,9.39098127 24.7400749,9.42777528 25.0152509,9.42561798 L25.5483446,9.42561798 C25.8062622,9.42561798 26.0228315,9.41267416 26.1961348,9.38223221 C26.3718352,9.35191011 26.5191311,9.30217228 26.6405393,9.23062172 C26.7619476,9.15919101 26.8701723,9.06379026 26.9677303,8.94250187 C27.0631311,8.82109363 27.1627266,8.67164045 27.2645993,8.48958801 L27.4205243,8.48958801 L27.381573,8.65857678 C27.3534082,8.77770787 27.3534082,8.88832959 27.3773783,8.9900824 C27.4032659,9.09195506 27.4639101,9.17441199 27.5593109,9.23709363 C27.6547116,9.29989513 27.7954157,9.33249438 27.9797453,9.33465169 L30.9181124,9.33465169 L30.9830712,9.03562547 C30.9288989,9.03562547 30.870412,9.02903371 30.8096479,9.01393258 C30.7469663,8.99667416 30.6949513,8.96838951 30.6494082,8.92296629 C30.6060225,8.87958052 30.5821723,8.81881648 30.5801348,8.7364794 C30.5801348,8.68674157 30.5843296,8.64335581 30.5908015,8.60440449 C30.5973933,8.56317603 30.6060225,8.5134382 30.6190861,8.45051685 L31.6201948,4.13399251 C31.6332584,4.07982022 31.6439251,4.01474157 31.6549513,3.94103371 C31.6635805,3.86744569 31.6722097,3.79373783 31.6766442,3.72002996 C31.6831161,3.6463221 31.6852734,3.5856779 31.6852734,3.53582022 C31.6831161,3.27143071 31.6246292,3.04838951 31.5118502,2.86621723 C31.399191,2.68428464 31.2453034,2.54777528 31.0481498,2.45465169 C30.8509963,2.36140824 30.6255581,2.31370787 30.3720749,2.31370787 Z" id="Stroke-10"></path>
                    <path d="M9.65932584,9.33465169 L9.72440449,9.03562547 C9.64410487,9.03346816 9.56200749,9.01177528 9.47727341,8.97066667 C9.39493633,8.9272809 9.32350562,8.87083146 9.26501873,8.80155805 C9.20437453,8.73444195 9.17189513,8.66073408 9.16530337,8.58055431 L8.56725094,0.987445693 C8.55646442,0.853093633 8.51751311,0.738277154 8.45027715,0.645153558 C8.3851985,0.554187266 8.29842697,0.482516854 8.19451685,0.43493633 C8.08820974,0.387116105 7.97555056,0.363385768 7.85210487,0.363385768 L3.97758801,0.363385768 L3.89956554,0.662411985 C3.96236704,0.662411985 4.02313109,0.684104869 4.08149813,0.72305618 C4.14010487,0.762127341 4.18996255,0.809827715 4.22891386,0.87059176 C4.26798502,0.929078652 4.2875206,0.989722846 4.2896779,1.05252434 C4.2896779,1.09591011 4.2875206,1.13486142 4.28092884,1.16518352 C4.27445693,1.19346816 4.26367041,1.22151311 4.25072659,1.2475206 L0.428104869,8.65857678 C0.408689139,8.69980524 0.393468165,8.74091386 0.380404494,8.78645693 C0.369498127,8.83188015 0.363146067,8.87083146 0.363146067,8.90558801 C0.365303371,9.03131086 0.412883895,9.13306367 0.510441948,9.2133633 C0.605842697,9.29126592 0.737917603,9.33249438 0.909183521,9.33465169 L3.73057678,9.33465169 L3.79553558,9.03562547 C3.73489139,9.03562547 3.67628464,9.0225618 3.62007491,8.99667416 C3.56590262,8.97066667 3.52035955,8.93602996 3.48572285,8.89264419 C3.45096629,8.84925843 3.43370787,8.80155805 3.43155056,8.74954307 C3.43155056,8.73444195 3.43155056,8.71059176 3.43574532,8.67583521 C3.43802247,8.64131835 3.44461423,8.6087191 3.4574382,8.58055431 L3.99053184,7.51448689 L5.49884644,7.51448689 L5.61570037,8.84062921 C5.6331985,9.02699625 5.696,9.15475655 5.80446442,9.22846442 C5.91268914,9.30217228 6.0795206,9.33680899 6.3049588,9.33465169 L9.65932584,9.33465169 Z M5.39481648,4.31592509 L5.49884644,5.77222472 L4.75769288,5.77222472 L5.39481648,4.31592509 Z" id="Fill-3-Copy" fill="#3D3777"></path>
                    <path d="M3.79553558,8.74798502 C3.97899206,8.74798502 4.11556492,8.91741156 4.07662018,9.09668673 L4.01166138,9.39571295 C3.98293319,9.52795802 3.86590626,9.62229213 3.73057678,9.62229213 L0.905560625,9.62226932 C0.674911807,9.61936401 0.479659496,9.5595848 0.327644213,9.4354489 C0.165274564,9.30180312 0.0791566266,9.12082834 0.075505618,8.90558801 C0.075505618,8.84646017 0.0842675547,8.78779523 0.100713274,8.71930152 C0.121289878,8.64657074 0.14195326,8.59107479 0.172467336,8.52671898 L3.99321625,1.11935877 C4.00069942,1.10018843 4.00203745,1.08158828 4.00220701,1.0623993 C4.00188408,1.05299837 3.99897221,1.04420191 3.98675536,1.02582156 C3.97147382,1.00198235 3.95111837,0.981837141 3.92183056,0.962311891 C3.71121638,0.950052434 3.57369086,0.772039194 3.62124323,0.589791614 L3.6992657,0.290765397 C3.73231151,0.164115199 3.84669761,0.0757453184 3.97758801,0.0757453184 L7.85210487,0.0757453184 C8.0154173,0.0757453184 8.1683603,0.107767885 8.31427011,0.173409687 C8.46335371,0.241675188 8.58965311,0.345613667 8.68348503,0.476775669 C8.782819,0.614355865 8.83911278,0.779386206 8.85400332,0.96486035 L9.45197666,8.55698625 C9.45334587,8.57364077 9.45985027,8.58814153 9.4848013,8.61599768 C9.5186192,8.6560525 9.56064773,8.68946935 9.60282618,8.71187422 C9.65241489,8.73593211 9.69479229,8.74708568 9.73212936,8.74808877 C9.91241115,8.75293216 10.0438178,8.92057256 10.0054657,9.0967943 L9.94038705,9.39582052 C9.91161703,9.52801427 9.79461406,9.62229213 9.65932584,9.62229213 L6.30771122,9.62227897 C6.02766575,9.62495883 5.80739604,9.5784759 5.64279322,9.46637081 C5.45502121,9.33876884 5.35415563,9.13204004 5.32917014,8.86587702 L5.23543711,7.80212734 L4.16826237,7.80212734 L3.71922007,8.69974861 C3.75921369,8.74407484 3.77680948,8.74798502 3.79553558,8.74798502 Z M9.05159668,8.99440011 C8.95005598,8.88202305 8.89057517,8.74941805 8.87855099,8.60313965 L8.28053306,1.01046497 C8.27375021,0.925980848 8.2518017,0.861636785 8.21633951,0.812516061 C8.18028897,0.762124978 8.13278386,0.723030501 8.07651627,0.697258439 C8.00746767,0.66619825 7.93500452,0.651026217 7.85210487,0.651026217 L4.42527264,0.651026217 C4.44061075,0.670274381 4.45490313,0.690211093 4.46809426,0.710811407 C4.53592874,0.812355046 4.57309467,0.924629435 4.57731835,1.05252434 C4.57731835,1.11919437 4.57337819,1.17396692 4.56132282,1.22934147 C4.5497917,1.27973676 4.53158057,1.32877899 4.50636412,1.3793784 L0.688333029,8.78112609 C0.676631368,8.80597406 0.667208172,8.83086188 0.658637758,8.85978824 C0.652948565,8.88431435 0.650783334,8.89892194 0.65074418,8.90065306 C0.651481507,8.94362283 0.661872689,8.96545965 0.692373282,8.99056739 C0.733577354,9.02421393 0.80362088,9.04565873 0.909183521,9.04701124 L3.24199229,9.04701124 C3.18165099,8.96214838 3.14843145,8.8639696 3.14391011,8.74954307 C3.14391011,8.71421946 3.1450145,8.68643481 3.14932164,8.64865669 C3.15445663,8.58277813 3.16900661,8.51990817 3.20017055,8.45190602 L3.73326418,7.3858386 C3.78199047,7.28839697 3.88158633,7.22684644 3.99053184,7.22684644 L5.49884644,7.22684644 C5.64792077,7.22684644 5.77229159,7.34074014 5.78537668,7.48923908 L5.9020813,8.81374071 C5.91213042,8.92077071 5.93628218,8.97027088 5.96638031,8.9907245 C6.01677108,9.02504379 6.12879477,9.04868385 6.3049588,9.04701124 L9.0998302,9.04709466 C9.08282945,9.02993018 9.06672599,9.01236986 9.05159668,8.99440011 Z M5.68172583,4.29542988 L5.78575579,5.75172951 C5.79765007,5.91823578 5.665777,6.05986517 5.49884644,6.05986517 L4.75769288,6.05986517 C4.55026107,6.05986517 4.41102672,5.84697469 4.49416848,5.65693415 L5.13129207,4.20063452 C5.25169995,3.92541328 5.66032091,3.99578573 5.68172583,4.29542988 Z" id="Stroke-4-Copy" fill="#FFFFFE" fill-rule="nonzero"></path>
                    <path d="M14.2063221,4.91409738 C14.2366442,4.77758801 14.3060375,4.67355805 14.4186966,4.60428464 C14.5291985,4.53261423 14.6961498,4.49797753 14.9214682,4.49797753 L15.4804494,4.49797753 C15.7620974,4.50025468 15.9984419,4.4482397 16.1914007,4.34408989 C16.3819625,4.24005993 16.5184719,4.07322846 16.5986517,3.84791011 L16.9757004,2.23568539 L15.8445543,2.23568539 C15.677603,2.23568539 15.536779,2.25953558 15.4241199,2.30723596 C15.3093034,2.35481648 15.2117453,2.42432959 15.1272509,2.51086142 C15.0449139,2.59979026 14.9647341,2.70597753 14.8888689,2.82726592 C14.8131236,2.95083146 14.7286292,3.08734082 14.6355056,3.23691386 L14.4794607,3.23691386 C14.5053483,3.14594757 14.5248839,3.06121348 14.5379476,2.98546816 C14.5507715,2.9117603 14.5573633,2.8468015 14.5573633,2.79478652 C14.5595206,2.64317603 14.5097828,2.5260824 14.4100674,2.44158801 C14.3081948,2.35709363 14.1455581,2.31370787 13.9202397,2.31370787 L11.0338876,2.31370787 L10.9689288,2.61285393 C11.0231011,2.61285393 11.0772734,2.63011236 11.133603,2.66247191 C11.1877753,2.69291386 11.2353558,2.73833708 11.2722697,2.79694382 C11.311221,2.85543071 11.3307566,2.92482397 11.3329139,3.00272659 C11.3329139,3.0395206 11.3329139,3.07871161 11.3307566,3.11538577 C11.3264419,3.15014232 11.3198502,3.19137079 11.3070262,3.23691386 L10.032779,8.71059176 C10.0197154,8.76907865 10.0110861,8.82325094 10.0044944,8.87083146 C9.99802247,8.91865169 9.99370787,8.957603 9.99370787,8.98361049 C9.99586517,9.08332584 10.0348165,9.16578277 10.1085243,9.23277903 C10.1843895,9.29785768 10.2842247,9.33249438 10.4097079,9.33465169 L13.6602846,9.33465169 L13.7383071,9.03562547 C13.6797004,9.03562547 13.6233708,9.01620974 13.5693184,8.97701873 C13.5128689,8.94034457 13.4674457,8.89048689 13.4305318,8.8298427 C13.393618,8.76907865 13.3763596,8.70411985 13.3743221,8.63256929 C13.3743221,8.59349813 13.3743221,8.55670412 13.3763596,8.52422472 C13.3763596,8.48958801 13.380794,8.45698876 13.3871461,8.42462921 L14.2063221,4.91409738 Z" id="Fill-5-Copy" fill="#3D3777"></path>
                    <path d="M14.92145,2.30990621 C15.035392,2.19321663 15.1657485,2.1029455 15.3119701,2.04235964 C15.4632036,1.97832674 15.6413564,1.94804494 15.8445543,1.94804494 L16.9757004,1.94804494 C17.1610253,1.94804494 17.2979862,2.12073232 17.2557833,2.30118798 L16.8787346,3.9134127 C16.8762855,3.92388479 16.873251,3.93421128 16.8696455,3.94434353 C16.7662773,4.23482518 16.5834079,4.45779919 16.3280241,4.59721256 C16.088576,4.72645502 15.8042957,4.78824571 15.4804494,4.78561798 L14.9214682,4.78561798 C14.7454768,4.78561798 14.6303631,4.80984377 14.569361,4.84930971 C14.5262124,4.87584147 14.5013641,4.91233713 14.4871188,4.97646925 L13.6694,8.48003461 C13.6655514,8.49964049 13.664,8.51311461 13.664,8.52422472 C13.6622478,8.56116963 13.6619625,8.58149103 13.661846,8.62438184 C13.6625539,8.64924244 13.6669859,8.66506148 13.6762339,8.68028492 C13.6927174,8.70736492 13.7089319,8.72470822 13.726025,8.73581333 C13.9274643,8.74903307 14.0640418,8.92653473 14.0166294,9.10824584 L13.938607,9.40727206 C13.9055612,9.53392225 13.791175,9.62229213 13.6602846,9.62229213 L10.4047635,9.62224964 C10.2164745,9.61901258 10.051539,9.56286747 9.91505367,9.44563138 C9.78286752,9.32548169 9.70999629,9.16832294 9.70606742,8.98361049 C9.70606742,8.94284282 9.71046314,8.89867623 9.71957517,8.83135903 C9.72860249,8.76619822 9.73859676,8.70814708 9.75262959,8.64537425 L11.0268768,3.17169635 C11.0362673,3.13723634 11.0405623,3.11536111 11.0440839,3.08938228 C11.0445528,3.07900386 11.0448672,3.06729087 11.0450493,3.05382312 C11.0452342,3.04014738 11.0452734,3.02864281 11.0453836,3.01068897 C11.0446257,2.98331959 11.0398224,2.96683484 11.0288838,2.95024207 C11.0175208,2.9322015 11.0051033,2.92020749 10.9903223,2.91188654 C10.9736763,2.90232396 10.9676892,2.90049438 10.9689288,2.90049438 C10.7854822,2.90049438 10.6489114,2.73108487 10.6878392,2.55181603 L10.752798,2.25266996 C10.7815171,2.12041375 10.8985492,2.02606742 11.0338876,2.02606742 L13.9202397,2.02606742 C14.2051861,2.02606742 14.4311668,2.08538528 14.5960202,2.22213736 C14.6795439,2.29291168 14.7422762,2.37783593 14.7838921,2.47349448 C14.8277944,2.41603137 14.8735196,2.36160272 14.92145,2.30990621 Z M14.2621752,4.36295898 C14.4268964,4.25612243 14.6444548,4.21033708 14.9214682,4.21033708 L15.482775,4.21034648 C15.7170446,4.21224057 15.9063118,4.17110178 16.0535745,4.09162017 C16.1762154,4.02466904 16.2650514,3.91878875 16.322502,3.76558927 L16.6130284,2.52332584 L15.8445543,2.52332584 C15.7133402,2.52332584 15.6100128,2.54088907 15.5342385,2.57296309 C15.4598872,2.60377463 15.393993,2.64940606 15.3383154,2.70628098 C15.268364,2.78183259 15.1990389,2.87379656 15.1341013,2.97759264 C15.0606225,3.09746068 14.9769256,3.23275924 14.8796877,3.38894067 C14.8271768,3.47328249 14.7348582,3.52455431 14.6355056,3.52455431 L14.4794607,3.52455431 C14.2884834,3.52455431 14.1505314,3.34186574 14.2028051,3.15818184 C14.2256429,3.07793254 14.243046,3.00294676 14.2545642,2.93616407 C14.2647328,2.87771823 14.2697228,2.82866881 14.269752,2.79069402 C14.270717,2.72287606 14.2562002,2.68822656 14.2264374,2.66298593 C14.1839965,2.627785 14.0832818,2.60134831 13.9202397,2.60134831 L11.4872117,2.60134831 C11.4957936,2.61316076 11.5039563,2.62522239 11.5116764,2.63750284 C11.5814035,2.74220075 11.6168156,2.86373444 11.6205543,3.00272659 C11.6205543,3.03122564 11.6205092,3.04447667 11.6202776,3.06160134 C11.6199315,3.08719678 11.619205,3.11010182 11.6179006,3.1322766 C11.6094443,3.20529034 11.6002832,3.25521516 11.5858042,3.30802246 L10.3135021,8.77329424 C10.3038759,8.81639115 10.2964427,8.85956675 10.2895362,8.90940855 C10.2839268,8.95085579 10.2813483,8.97676339 10.281281,8.97738895 C10.2816989,8.99670502 10.2855248,9.00495618 10.2958035,9.01445917 C10.3185005,9.0339291 10.3539927,9.04601088 10.4097079,9.04701124 L13.2306179,9.04701124 C13.2143824,9.02543985 13.1990834,9.00281693 13.1846988,8.97918506 C13.121996,8.87596975 13.0902716,8.76273491 13.0866816,8.63256929 C13.0866816,8.5738283 13.0870033,8.54620713 13.088784,8.51459248 C13.0894447,8.46585 13.0951688,8.41881578 13.1070309,8.35926485 L13.9258904,4.85008943 C13.9732157,4.63883355 14.0887805,4.46948061 14.2621752,4.36295898 Z" id="Stroke-6-Copy" fill="#FFFFFE" fill-rule="nonzero"></path>
                    <path d="M20.5993708,7.18945318 C20.3263521,7.18717603 20.139985,7.11994007 20.0382322,6.98558801 C19.9363596,6.84907865 19.9169438,6.65851685 19.9753109,6.40934831 L20.6903371,3.32788015 C20.7229363,3.14798502 20.7726742,2.99409738 20.8421873,2.86202247 C20.9114607,2.72970787 21.011176,2.62795506 21.1410936,2.55424719 C21.2712509,2.48053933 21.4467116,2.44374532 21.6655581,2.44374532 L23.004764,2.44374532 C23.2237303,2.44374532 23.3925993,2.41126592 23.5161648,2.34834457 C23.6397303,2.28554307 23.7306966,2.19661423 23.7934981,2.08395506 C23.8564195,1.96913858 23.904,1.83262921 23.9409139,1.67658427 C23.971236,1.55949064 24.0059925,1.42298127 24.0449438,1.26274157 C24.0817378,1.10453933 24.1163745,0.944179775 24.1511311,0.783820225 C24.1834906,0.623460674 24.209618,0.482516854 24.2268764,0.363385768 L19.8063221,0.363385768 C19.5159251,0.363385768 19.2299625,0.413243446 18.9525094,0.510801498 C18.675176,0.610397004 18.415221,0.764404494 18.1724045,0.968029963 C17.9318652,1.17177528 17.7194906,1.43173034 17.5375581,1.74585768 C17.3555056,2.06010487 17.2146816,2.43068165 17.1149663,2.85962547 L16.3999401,5.99310861 C16.3066966,6.38322097 16.2438951,6.74948315 16.2112959,7.08961798 C16.1766592,7.42999251 16.1897228,7.73752809 16.2460524,8.01282397 C16.302382,8.28811985 16.4193558,8.52206742 16.5949363,8.71922097 C16.770397,8.91637453 17.0195655,9.06822472 17.3445993,9.17441199 C17.6697528,9.2804794 18.0813184,9.33249438 18.5840899,9.33465169 L21.5095131,9.33465169 C21.8281948,9.33465169 22.0773633,9.29989513 22.261573,9.23062172 C22.4456629,9.16350562 22.5821723,9.06594757 22.6731386,8.94034457 C22.7642247,8.81462172 22.8271461,8.66301124 22.8616629,8.48958801 L23.2388315,6.85135581 L22.9398052,6.85135581 C22.9159551,6.92074906 22.8682547,6.98139326 22.7945468,7.03125094 C22.7209588,7.08098876 22.6386217,7.11994007 22.543221,7.14822472 C22.4500974,7.17423221 22.3611685,7.18945318 22.2766742,7.18945318 L20.5993708,7.18945318 Z" id="Fill-7-Copy" fill="#3D3777"></path>
                    <path d="M22.2766742,6.90181273 C22.3292148,6.90181273 22.3917324,6.89188495 22.4614585,6.87244958 C22.527649,6.85282527 22.5834562,6.8267458 22.633387,6.79299784 C22.6561306,6.77761357 22.6646411,6.76700452 22.667783,6.75786284 C22.7077055,6.64170638 22.8169796,6.56371536 22.9398052,6.56371536 L23.2388315,6.56371536 C23.4237481,6.56371536 23.5606268,6.73568825 23.5191389,6.91589071 L23.14377,8.54573648 C23.1012846,8.75919607 23.0220399,8.94903565 22.9060998,9.1090636 C22.7787568,9.28489418 22.5941418,9.41553362 22.3628198,9.49985417 C22.1412181,9.5831891 21.8591225,9.62229213 21.5095131,9.62229213 L18.5828557,9.62228949 C18.0489105,9.61999842 17.6101423,9.56359174 17.2552742,9.44783121 C16.885318,9.32696792 16.5922312,9.14884405 16.3801314,8.91052143 C16.1693031,8.67378929 16.0302738,8.39315547 15.9642506,8.07048477 C15.9011572,7.76213244 15.8880534,7.42488144 15.9249675,7.06217565 C15.9589892,6.70719873 16.0242224,6.32770867 16.1195081,5.92911713 L16.8347966,2.7944952 C16.9405603,2.339533 17.091356,1.94225486 17.2886503,1.6016982 C17.4863861,1.26028476 17.7196078,0.974605557 17.9875776,0.747630189 C18.2581557,0.520723932 18.5477474,0.350532914 18.8570957,0.239446995 C19.1660114,0.130826093 19.4842485,0.0757453184 19.8063221,0.0757453184 L24.2268764,0.0757453184 C24.4021482,0.0757453184 24.5366743,0.231164443 24.5115452,0.40462551 C24.4944814,0.522412834 24.4691381,0.662069574 24.4323303,0.844351643 C24.3776812,1.09652772 24.3546642,1.20081375 24.3244451,1.33068317 C24.2895626,1.4741843 24.2563691,1.60581166 24.2208289,1.74280072 C24.1770492,1.92786943 24.12031,2.08612536 24.0447391,2.22400856 C23.9530208,2.3885414 23.8190468,2.51706579 23.6466875,2.60466633 C23.4764333,2.69136223 23.2635246,2.73138577 23.004764,2.73138577 L21.6655581,2.73138577 C21.4922732,2.73138577 21.3645508,2.75826434 21.2830321,2.80442813 C21.2001386,2.85145717 21.1401071,2.91313119 21.0967255,2.99598999 C21.0421503,3.09968286 21.0012016,3.22557213 20.973368,3.37916889 L20.2553702,6.47495145 C20.2142722,6.65039877 20.2255787,6.75569616 20.267532,6.81192563 C20.3061083,6.8628609 20.4084917,6.90006608 20.6006219,6.90181273 L22.2766742,6.90181273 Z M22.83049,7.34293688 C22.7655682,7.37562792 22.6960961,7.402901 22.6205923,7.4252639 C22.4993397,7.45912725 22.386201,7.47709363 22.2766742,7.47709363 L20.5993708,7.47709363 C20.242804,7.47412964 19.9734147,7.37642903 19.8077076,7.15762128 C19.6483625,6.94409879 19.618898,6.66969761 19.6951148,6.34433141 L20.4086025,3.26949346 C20.446415,3.06407128 20.5049781,2.88512971 20.5873592,2.72860704 C20.6820317,2.54777933 20.8207118,2.40530489 20.9993531,2.30395409 C21.1775834,2.20302254 21.4005282,2.15610487 21.6655581,2.15610487 L23.004764,2.15610487 C23.180028,2.15610487 23.3064782,2.13233419 23.3858396,2.09192231 C23.4567277,2.05589385 23.5063801,2.00826116 23.541252,1.94571998 C23.5885902,1.85933904 23.6283094,1.74855498 23.6624583,1.60447653 C23.698784,1.46419899 23.7312929,1.33528631 23.7647808,1.19758245 C23.7934662,1.0742445 23.816061,0.971871707 23.8645287,0.748219337 C23.8747199,0.699424459 23.8796242,0.674805888 23.8842963,0.651026217 L19.8063221,0.651026217 C19.549699,0.651026217 19.2959468,0.694945888 19.0497275,0.781514753 C18.8080021,0.868322771 18.5772034,1.00396161 18.3583163,1.1875153 C18.1436251,1.36936634 17.9522205,1.60382284 17.7864485,1.89004706 C17.6191814,2.17877276 17.4885448,2.52294091 17.3953983,2.92361696 L16.6797003,6.05997603 C16.5897328,6.43638251 16.5289999,6.78969295 16.4974585,7.11873805 C16.4660715,7.42717816 16.4769128,7.70620055 16.5278542,7.95516317 C16.5737349,8.1793929 16.6669894,8.36762914 16.8098061,8.52799338 C16.9493724,8.68481472 17.1552992,8.80996701 17.4338034,8.90095332 C17.7248371,8.99589057 18.106527,9.04495945 18.5840899,9.04701124 L21.5095131,9.04701124 C21.7956961,9.04701124 22.0125914,9.01694603 22.1630479,8.9603814 C22.2943865,8.91249755 22.384162,8.84896952 22.4402065,8.77158537 C22.5055476,8.68139749 22.5526746,8.56849914 22.5813555,8.42505311 L22.83049,7.34293688 Z" id="Stroke-8-Copy" fill="#FFFFFE" fill-rule="nonzero"></path>
                    <path d="M27.017588,6.73426217 C27.0522247,6.56755056 27.0976479,6.43967041 27.1540974,6.35289888 C27.2082697,6.26624719 27.271191,6.2077603 27.3404644,6.1774382 C27.4118951,6.14927341 27.485603,6.13405243 27.5636255,6.13620974 C27.6394906,6.13620974 27.7022921,6.13620974 27.7478352,6.13620974 C27.7933783,6.13620974 27.8323296,6.13620974 27.8626517,6.13620974 L27.589633,7.31937079 C27.5700974,7.41908614 27.5289888,7.49926592 27.4683446,7.56206742 C27.4077004,7.62271161 27.3295581,7.65531086 27.2385918,7.65746816 L27.1476255,7.65746816 C27.0565393,7.65746816 26.9914607,7.64020974 26.9503521,7.60101873 C26.9070861,7.56422472 26.8874307,7.49926592 26.8874307,7.41045693 C26.8874307,7.38217228 26.8897079,7.34981273 26.8962996,7.30846442 C26.9004944,7.26951311 26.9070861,7.22840449 26.9135581,7.18945318 L27.017588,6.73426217 Z M30.3720749,2.31370787 L25.9383371,2.31370787 L25.6654382,3.41884644 C25.6523745,3.45779775 25.6437453,3.50118352 25.6371536,3.5488839 C25.6306816,3.59430712 25.626367,3.63769288 25.626367,3.6788015 C25.6240899,3.83484644 25.6674757,3.94966292 25.760839,4.02337079 C25.8518052,4.09707865 26.005573,4.13399251 26.2244195,4.13399251 L27.953618,4.13399251 C28.0773034,4.13183521 28.1638352,4.1621573 28.2136929,4.22076404 C28.2636704,4.28140824 28.2722996,4.38316105 28.2397004,4.52398502 C28.2136929,4.63232959 28.1616779,4.71250936 28.08797,4.76236704 C28.0142622,4.81210487 27.9211386,4.83595506 27.8106367,4.83595506 L26.0945019,4.83595506 C25.7043895,4.8317603 25.3598202,4.90319101 25.060794,5.05060674 C24.7617678,5.19802247 24.5061273,5.4385618 24.293633,5.77426217 C24.0812584,6.11020225 23.9101124,6.5588015 23.7800749,7.12437453 C23.7628165,7.22612734 23.7454382,7.33243446 23.7259026,7.44521348 C23.7085243,7.55547566 23.6933034,7.66394007 23.6826367,7.76569288 C23.669573,7.8698427 23.6629813,7.95865169 23.6629813,8.03451685 C23.6653783,8.40077903 23.721588,8.68470412 23.8320899,8.88605243 C23.9427116,9.0896779 24.0986367,9.23062172 24.3001049,9.31092135 C24.5016929,9.39098127 24.7400749,9.42777528 25.0152509,9.42561798 L25.5483446,9.42561798 C25.8062622,9.42561798 26.0228315,9.41267416 26.1961348,9.38223221 C26.3718352,9.35191011 26.5191311,9.30217228 26.6405393,9.23062172 C26.7619476,9.15919101 26.8701723,9.06379026 26.9677303,8.94250187 C27.0631311,8.82109363 27.1627266,8.67164045 27.2645993,8.48958801 L27.4205243,8.48958801 L27.381573,8.65857678 C27.3534082,8.77770787 27.3534082,8.88832959 27.3773783,8.9900824 C27.4032659,9.09195506 27.4639101,9.17441199 27.5593109,9.23709363 C27.6547116,9.29989513 27.7954157,9.33249438 27.9797453,9.33465169 L30.9181124,9.33465169 L30.9830712,9.03562547 C30.9288989,9.03562547 30.870412,9.02903371 30.8096479,9.01393258 C30.7469663,8.99667416 30.6949513,8.96838951 30.6494082,8.92296629 C30.6060225,8.87958052 30.5821723,8.81881648 30.5801348,8.7364794 C30.5801348,8.68674157 30.5843296,8.64335581 30.5908015,8.60440449 C30.5973933,8.56317603 30.6060225,8.5134382 30.6190861,8.45051685 L31.6201948,4.13399251 C31.6332584,4.07982022 31.6439251,4.01474157 31.6549513,3.94103371 C31.6635805,3.86744569 31.6722097,3.79373783 31.6766442,3.72002996 C31.6831161,3.6463221 31.6852734,3.5856779 31.6852734,3.53582022 C31.6831161,3.27143071 31.6246292,3.04838951 31.5118502,2.86621723 C31.399191,2.68428464 31.2453034,2.54777528 31.0481498,2.45465169 C30.8509963,2.36140824 30.6255581,2.31370787 30.3720749,2.31370787 Z" id="Fill-9-Copy" fill="#3D3777"></path>
                    <path d="M27.455804,6.44094118 C27.4432685,6.44642815 27.4229021,6.46554122 27.3952068,6.5097532 C27.3616022,6.56140863 27.3273846,6.65718643 27.2992143,6.79277404 L27.2979986,6.79834758 L27.1959133,7.2450295 C27.1889051,7.28755978 27.1849508,7.3145231 27.1822865,7.339263 L27.1803531,7.35374831 C27.1794408,7.35947118 27.1786635,7.36482132 27.1780087,7.36985691 L27.2317722,7.36990857 C27.2497465,7.3694823 27.2572741,7.3663529 27.2614292,7.36225984 C27.2832958,7.33961545 27.2984679,7.30945024 27.3093577,7.25469624 L27.5000397,6.42835186 C27.4844802,6.43132946 27.4695444,6.43562156 27.455804,6.44094118 Z M27.1119177,7.36828322 C27.1105587,7.36778319 27.1092659,7.36736337 27.1080476,7.3670211 C27.1084823,7.36714322 27.1089968,7.36726753 27.1095907,7.36739252 L27.1119177,7.36828322 Z M27.1436995,7.38820729 C27.1435105,7.388027 27.1433208,7.38784682 27.1431302,7.38766675 C27.1429302,7.38749494 27.1427303,7.38732423 27.1425306,7.38715464 L27.1436995,7.38820729 Z M26.9101977,6.20041942 C26.9927865,6.06831386 27.0979904,5.96958404 27.2349547,5.9098476 C27.3442505,5.8667528 27.4560926,5.8454861 27.5636255,5.84856929 L27.8626517,5.84856929 C28.0476272,5.84856929 28.1845178,6.02064514 28.142927,6.20088428 L27.8719073,7.37467213 C27.8422249,7.52617975 27.776311,7.65722919 27.6717371,7.76545993 C27.5579325,7.87926451 27.4090802,7.94114629 27.2385918,7.94510861 L27.1476255,7.94510861 C26.990821,7.94510861 26.8604003,7.90929679 26.7577547,7.81472153 C26.6440688,7.71444921 26.5997903,7.57451371 26.5997903,7.41045693 C26.5997903,7.36631388 26.6033884,7.32090468 26.6110973,7.27053286 C26.6153197,7.23293699 26.6207942,7.19655458 26.6298077,7.14230697 L26.6331475,7.12536778 L26.73656,6.67287832 C26.7779771,6.47462651 26.8346422,6.31647455 26.9101977,6.20041942 Z M25.6590847,2.24475031 C25.6908013,2.11630995 25.8060387,2.02606742 25.9383371,2.02606742 L30.3720749,2.02606742 C30.6654942,2.02606742 30.933152,2.08207556 31.1709992,2.19456507 C31.4181584,2.31130833 31.6143918,2.4854545 31.7564174,2.71481081 C31.8989421,2.94503136 31.9703454,3.21986952 31.9729139,3.53582022 C31.9729139,3.59993576 31.9698708,3.66901429 31.9637655,3.73730393 C31.9596327,3.80599767 31.9541593,3.85919572 31.9394263,3.98358932 C31.924992,4.08008005 31.913936,4.14288588 31.900398,4.19897856 L30.9007206,8.50898953 C30.8901326,8.55998667 30.8822055,8.60371459 30.8745519,8.65155071 C30.8701052,8.67831273 30.8677753,8.70582125 30.8676873,8.72936384 C30.9149129,8.74370303 30.9500216,8.74798502 30.9830712,8.74798502 C31.1665276,8.74798502 31.3031005,8.91741156 31.2641558,9.09668673 L31.199197,9.39571295 C31.1704688,9.52795802 31.0534418,9.62229213 30.9181124,9.62229213 L27.9763791,9.62227244 C27.7416708,9.61952553 27.5493722,9.57492146 27.4013632,9.47748821 C27.2855592,9.40140093 27.1976754,9.30221599 27.1419639,9.18205483 C27.0356768,9.30260934 26.9176103,9.40133865 26.7865819,9.4784293 C26.6337711,9.56848658 26.4542252,9.62958384 26.245899,9.66553515 C26.05897,9.69837053 25.83052,9.71325843 25.5483446,9.71325843 L25.0175059,9.71324959 C24.7042315,9.71570557 24.4305638,9.67222694 24.1936068,9.57812015 C23.9282555,9.47235846 23.7213087,9.28469116 23.5799281,9.02444123 C23.4432612,8.77541694 23.3780322,8.44670459 23.3753408,8.03451685 C23.3753408,7.94598857 23.382693,7.84581131 23.3965638,7.73570409 C23.4070909,7.63528261 23.422074,7.52539607 23.4424828,7.3961195 C23.4553501,7.32183654 23.4964117,7.07670489 23.4964847,7.07627443 C23.6362423,6.46626831 23.8184346,5.98765085 24.0505909,5.62041942 C24.2898885,5.24237509 24.5843366,4.96479894 24.933607,4.79261355 C25.2747755,4.62442224 25.6638344,4.54366715 26.0945019,4.54831461 L27.8106367,4.54831461 C27.8684025,4.54831461 27.9053461,4.53859764 27.9268102,4.52411394 C27.9382735,4.51635989 27.9501927,4.49772391 27.9594703,4.45911475 C27.9626458,4.44539728 27.9651265,4.43285955 27.9669851,4.42157101 C27.9641881,4.42154891 27.3833329,4.42156956 26.2244195,4.42163296 C25.9461678,4.42163296 25.7324096,4.37054845 25.5826042,4.24913482 C25.4126974,4.11499788 25.3352497,3.91495951 25.3387266,3.6788015 C25.3387266,3.62534126 25.3434691,3.57091525 25.3522209,3.50950878 C25.3609257,3.44651763 25.3722275,3.39177945 25.3886676,3.33983879 L25.6590847,2.24475031 Z M30.8611363,8.72887812 C30.8589457,8.72624732 30.8561196,8.72289289 30.8525326,8.71930598 C30.8534562,8.72022713 30.8543713,8.72109829 30.8552835,8.72192341 L30.8611363,8.72887812 Z M30.2924944,8.7364794 C30.2924944,8.67380131 30.2974932,8.61478289 30.3067685,8.55899224 C30.3154756,8.50453347 30.3249665,8.45217925 30.3388829,8.38553081 L31.34057,4.06656088 C31.3496576,4.02887663 31.3583922,3.97925764 31.3692683,3.90753342 C31.3815304,3.80296537 31.3862591,3.7570049 31.3901062,3.69487053 C31.3953294,3.63538359 31.397633,3.58309345 31.3976425,3.53816717 C31.3959043,3.3251398 31.3512477,3.15325207 31.2673001,3.01765138 C31.1840691,2.88324206 31.0725865,2.78430747 30.9251712,2.71467722 C30.7668428,2.63979611 30.5831044,2.60134831 30.3720749,2.60134831 L26.1635887,2.60134831 L25.9446906,3.487804 L25.9381496,3.51030965 C25.9323483,3.52760716 25.9269872,3.55279383 25.9219181,3.5894572 C25.9165191,3.62734973 25.9140075,3.65617399 25.9139769,3.68299857 C25.9128913,3.75738933 25.9237907,3.78554121 25.9419234,3.79988603 C25.9714915,3.82384432 26.0656729,3.84635206 26.2244195,3.84635206 L27.9486018,3.8463958 C28.1491822,3.84289731 28.318558,3.90011726 28.4356679,4.03783205 C28.5546905,4.18225749 28.570706,4.36951212 28.5193955,4.59112422 C28.4776339,4.76509885 28.3863754,4.90778411 28.2488638,5.00079992 C28.1247406,5.08455783 27.9763206,5.12359551 27.8106367,5.12359551 L26.0914091,5.12357888 C25.7445329,5.11984903 25.44455,5.18211504 25.187981,5.30859994 C24.938192,5.43174245 24.7216553,5.63587147 24.5367638,5.92796457 C24.3441311,6.23267649 24.1850616,6.64950523 24.0623203,7.18050317 C24.0551301,7.22340796 24.0211482,7.42601615 24.0100357,7.48999533 C23.9917736,7.60586541 23.97808,7.7062944 23.9680408,7.80149155 C23.9562749,7.89529496 23.9506217,7.97232231 23.9506156,8.03263443 C23.9527288,8.35554 24.0001212,8.5943673 24.0848409,8.74874273 C24.1636273,8.89376779 24.2681227,8.98852817 24.4062739,9.04359164 C24.568295,9.10793774 24.7694482,9.13989571 25.0152509,9.13797753 L25.5483446,9.13797753 C25.7999549,9.13797753 25.9972806,9.12511797 26.1472174,9.09878184 C26.2917417,9.07384006 26.4060375,9.03494662 26.4946784,8.98270716 C26.5851574,8.92947373 26.6671763,8.85723025 26.7415611,8.76478154 C26.8311271,8.65079872 26.922243,8.51236208 27.0135862,8.34912644 C27.0644429,8.25824252 27.1604537,8.20194757 27.2645993,8.20194757 L27.4205243,8.20194757 C27.605471,8.20194757 27.7423557,8.37397295 27.7008154,8.55419411 L27.6614969,8.72475595 C27.643952,8.79896678 27.6433294,8.86458889 27.6561583,8.91923947 C27.6639646,8.94995872 27.6806858,8.97266948 27.7174693,8.99683766 C27.7599633,9.0248111 27.848991,9.04546125 27.9797453,9.04701124 L30.3814015,9.04701124 C30.3243957,8.95998637 30.2953749,8.85557005 30.2924944,8.7364794 Z" id="Stroke-10-Copy" fill="#FFFFFE" fill-rule="nonzero"></path>
                </g>
            </g>
        </g>
    </g>
</svg>