<?xml version="1.0" encoding="UTF-8"?>
<svg width="14px" height="17px" viewBox="0 0 14 17" version="1.1" xmlns="http://www.w3.org/2000/svg" xmlns:xlink="http://www.w3.org/1999/xlink">
    <!-- Generator: Sketch 52.5 (67469) - http://www.bohemiancoding.com/sketch -->
    <title>Combined Shape</title>
    <desc>Created with Sketch.</desc>
    <g id="Page-2" stroke="none" stroke-width="1" fill="none" fill-rule="evenodd">
        <path d="M4.379625,15.4409141 L9.07282031,15.4409141 C8.67438281,16.3416152 7.77278516,16.9719766 6.72622266,16.9719766 C5.67966016,16.9719766 4.7780293,16.3416152 4.379625,15.4409141 Z M6.72605664,1.62150781 C6.03523242,1.62150781 5.37229883,1.74306445 4.75724414,1.96549219 L4.75724414,1.89065234 C4.75724414,0.848140625 5.60538477,-1.82076576e-13 6.64789648,-1.82076576e-13 L6.80458203,-1.82076576e-13 C7.84706055,-1.82076576e-13 8.69520117,0.848140625 8.69520117,1.89065234 L8.69520117,1.96645508 C8.07981445,1.74336328 7.41668164,1.62150781 6.72605664,1.62150781 Z M12.9408184,14.4448203 L0.511626953,14.4448203 C0.276482422,14.4448203 0.06109375,14.2862422 0.0121855469,14.0562109 C-0.0362246094,13.8284707 0.0675683594,13.6036855 0.278142578,13.5064004 C0.328113281,13.4739941 0.704238281,13.2109922 1.08079492,12.4152793 C1.77238281,10.9540098 1.91754688,8.89558203 1.91754688,7.42607812 C1.91754688,4.77464258 4.0746543,2.61760156 6.72605664,2.61760156 C9.37118359,2.61760156 11.5243066,4.76425 11.5345332,7.40698633 C11.5347656,7.41332812 11.5348984,7.41970312 11.5348984,7.42607812 C11.5348984,8.89558203 11.6800625,10.9540098 12.3716504,12.4152793 C12.748207,13.2109922 13.1242988,13.4740273 13.1743027,13.5064004 C13.384877,13.6036855 13.4887031,13.8284375 13.4402598,14.0562109 C13.3913516,14.286209 13.1759961,14.4448203 12.9408184,14.4448203 Z" id="Combined-Shape" fill="#4A4A4A"></path>
    </g>
</svg>