<?xml version="1.0" encoding="UTF-8"?>
<svg width="14px" height="16px" viewBox="0 0 14 16" version="1.1" xmlns="http://www.w3.org/2000/svg" xmlns:xlink="http://www.w3.org/1999/xlink">
    <!-- Generator: Sketch 52.5 (67469) - http://www.bohemiancoding.com/sketch -->
    <title>Group 2 Copy</title>
    <desc>Created with Sketch.</desc>
    <g id="Page-2" stroke="none" stroke-width="1" fill="none" fill-rule="evenodd">
        <g id="4-versia" transform="translate(-1497.000000, -28.000000)">
            <g id="Group-2-Copy" transform="translate(1495.000000, 26.000000)">
                <path d="M15.1952485,15.0817468 C15.1952485,14.8849609 15.124298,14.6145692 14.9659953,14.4562329 C14.9307719,14.4209395 14.8925356,14.3887873 14.8517217,14.3601422 C14.5936535,14.1850299 14.3814155,13.9504996 14.2328625,13.6762816 C13.8586499,12.9624745 13.2308505,11.4311401 13.2308505,9.19608163 C13.2308505,8.0039048 12.7291219,6.79411637 11.8542898,5.87700298 C11.2049128,5.19626803 10.3948806,4.72831736 9.54367623,4.5261538 C9.99649267,4.13162647 10.1569607,3.49752818 9.94631559,2.93510202 C9.73567049,2.37267586 9.19813599,2 8.59755749,2 C7.99697898,2 7.45944449,2.37267586 7.24879938,2.93510202 C7.03815428,3.49752818 7.1986223,4.13162647 7.65143875,4.5261538 C6.80023437,4.72838458 5.99020212,5.19653691 5.34075799,5.87760796 C4.46592585,6.79515828 3.96419723,8.00511475 3.96419723,9.19729158 C3.96419723,11.5721673 3.27643781,13.1146265 2.86649783,13.8226863 C2.73846296,14.037404 2.56576045,14.2220846 2.36009744,14.364209 C2.32331188,14.3901717 2.2887534,14.419154 2.2567806,14.4508554 C2.09185909,14.6194032 1.99965833,14.8459347 2.00000095,15.0817468 C2.00000095,15.5751402 2.39384178,15.9781229 2.8779252,15.9781229 L7.02659706,15.9781229 C6.99671046,16.1062097 6.9812879,16.2372452 6.98061871,16.3687708 C6.98113845,17.2618186 7.70551803,17.9853555 8.59856578,17.9848357 C9.49161353,17.984316 10.2151504,17.2599364 10.2146307,16.3668886 C10.2138978,16.2359977 10.1985323,16.1055991 10.1688204,15.9781229 L14.3173242,15.9781229 C14.8014076,15.9781229 15.1952485,15.5751402 15.1952485,15.0817468 Z M8.59762471,2.46395105 C8.99209336,2.46210034 9.34875092,2.69829634 9.50099478,3.0622067 C9.65323864,3.42611707 9.57102125,3.84591877 9.29274818,4.12551319 C9.0144751,4.40510761 8.59506758,4.48931271 8.23044011,4.33879443 C7.86581264,4.18827616 7.62792976,3.83274149 7.62791181,3.43826849 C7.62724137,2.90168684 8.0610459,2.46582245 8.59762471,2.46395105 Z M2.47053958,15.0817468 C2.47052096,14.9706693 2.51342645,14.8638812 2.59029166,14.7836942 C2.60364185,14.7705432 2.61805327,14.758515 2.63337955,14.7477316 C2.89382018,14.5666842 3.11223525,14.3316937 3.27378263,14.0587286 C3.70735036,13.3097992 4.43483669,11.6822733 4.43483669,9.19745963 C4.43483669,8.12493405 4.88917534,7.03328444 5.68139434,6.20244766 C6.48036893,5.3645192 7.54338291,4.88396482 8.59762471,4.88396482 C9.6518665,4.88396482 10.7150485,5.36428393 11.5139223,6.20177546 C12.3060741,7.03224253 12.7604127,8.12358966 12.7604127,9.19601441 C12.7604127,11.5319026 13.4219228,13.1424891 13.8162006,13.8946787 C13.9993495,14.2352811 14.2617107,14.5268524 14.5811619,14.7448076 C14.5996319,14.7576532 14.6169401,14.7720936 14.6328876,14.7879627 C14.6818236,14.8368987 14.7247098,14.975069 14.7247098,15.0818813 C14.7247098,15.3118738 14.5381413,15.5077187 14.3173242,15.5077187 L2.8779252,15.5077187 C2.65710814,15.5075843 2.47053958,15.3117394 2.47053958,15.0817468 Z M9.74409207,16.3664853 C9.74127002,16.8218727 9.46919496,17.2324184 9.05090335,17.4124677 C8.63261173,17.5925169 8.14741279,17.5079317 7.81472079,17.1969629 C7.48202879,16.885994 7.36492305,16.407602 7.51636055,15.9781229 L9.67895608,15.9781229 C9.72329541,16.1027503 9.74534403,16.2342114 9.74409207,16.3664853 Z" id="Shape" fill="#333333" fill-rule="nonzero"></path>
                <rect id="Rectangle" x="0" y="0" width="18" height="18"></rect>
            </g>
        </g>
    </g>
</svg>