<?xml version="1.0" encoding="UTF-8"?>
<svg width="30px" height="30px" viewBox="0 0 30 30" version="1.1" xmlns="http://www.w3.org/2000/svg" xmlns:xlink="http://www.w3.org/1999/xlink">
    <!-- Generator: Sketch 52.5 (67469) - http://www.bohemiancoding.com/sketch -->
    <title>credit-card</title>
    <desc>Created with Sketch.</desc>
    <g id="Page-2" stroke="none" stroke-width="1" fill="none" fill-rule="evenodd">
        <g id="4-versia" transform="translate(-527.000000, -184.000000)" fill="#000000">
            <g id="credit-card" transform="translate(527.000000, 184.000000)">
                <path d="M29.2036523,10.2952734 L19.704082,0.795820312 C19.1912695,0.283066406 18.5074219,0.00064453125 17.7783984,0.00064453125 C17.0494336,0.00064453125 16.3655273,0.282949219 15.8527148,0.795703125 L0.795175781,15.8533008 C0.282421875,16.3661133 0,17.0499023 0,17.7789258 C0,18.5079492 0.282421875,19.1918555 0.795175781,19.7045508 L1.96658203,20.875957 C1.96669922,20.8760156 1.96675781,20.8761328 1.966875,20.87625 C1.96699219,20.8763672 1.96710938,20.8764844 1.96722656,20.8766016 L9.83988281,28.7492578 L8.74980469,28.7492578 C8.4046875,28.7492578 8.12484375,29.029043 8.12484375,29.3742188 C8.12484375,29.7193359 8.4046875,29.9991797 8.74980469,29.9991797 L12.2179102,29.9991797 C12.2187305,29.9991797 12.2194922,29.9992383 12.2203125,29.9992383 C12.2211328,29.9992383 12.2218945,29.9991797 12.2227148,29.9991797 L21.2492578,29.9992969 C21.594375,29.9992969 21.8742188,29.7194531 21.8742188,29.3743359 C21.8742188,29.0291602 21.594375,28.749375 21.2492578,28.749375 L14.6009766,28.7492578 L29.2037109,14.1465234 C30.2654297,13.0846875 30.2654297,11.3569922 29.2036523,10.2952734 Z M28.3198242,13.2626953 L13.262168,28.3203516 C12.9860156,28.5964453 12.616875,28.7486719 12.2225977,28.7492578 L12.2178516,28.7492578 C11.8236914,28.7486133 11.454668,28.5964453 11.1786328,28.3203516 L3.29267578,20.4343359 L17.7533203,5.97357422 C17.9973633,5.72953125 17.9973633,5.33378906 17.7533203,5.08974609 C17.5092187,4.84570312 17.1135938,4.84570312 16.8694336,5.08980469 L2.40878906,19.5505664 L1.67894531,18.8207227 C1.40232422,18.5441016 1.24998047,18.1741406 1.24998047,17.7789844 C1.24998047,17.3838281 1.40232422,17.0138086 1.67900391,16.7371289 L16.736543,1.67958984 C17.0132227,1.40296875 17.3832422,1.250625 17.7783984,1.250625 C18.1735547,1.250625 18.5435742,1.40296875 18.8202539,1.67964844 L22.2012891,5.060625 L7.74046875,19.5215625 C7.49642578,19.7655469 7.49642578,20.1612891 7.74046875,20.4054492 C7.86251953,20.5274414 8.02248047,20.5884375 8.18238281,20.5884375 C8.34228516,20.5884375 8.50224609,20.5273828 8.62429688,20.4053906 L23.0851172,5.94451172 L28.3198242,11.179043 C28.8942188,11.7534961 28.8941602,12.6882422 28.3198242,13.2626953 Z" id="Shape" fill-rule="nonzero"></path>
                <path d="M15.3984961,18.050625 C15.1544531,17.806582 14.7588281,17.8066406 14.5146094,18.050625 L9.59660156,22.9685742 C9.35255859,23.2126172 9.35255859,23.6083008 9.59660156,23.8524609 C9.71865234,23.9745117 9.87861328,24.0355078 10.0385156,24.0355078 C10.198418,24.0355078 10.3583789,23.9744531 10.4804297,23.8524609 L15.3984375,18.9345117 C15.6425391,18.6903516 15.6425391,18.294668 15.3984961,18.050625 Z" id="Path"></path>
                <path d="M13.3813477,22.7191992 L11.3642578,24.7362891 C11.1202148,24.980332 11.1202148,25.3760742 11.3642578,25.6201758 C11.4863086,25.742168 11.6462695,25.8032227 11.8061719,25.8032227 C11.9661914,25.8032227 12.1260352,25.742168 12.2480859,25.6201758 L14.2651758,23.6030859 C14.5092188,23.359043 14.5092188,22.9633008 14.2651758,22.7191992 C14.0211328,22.4750977 13.6255664,22.4750977 13.3813477,22.7191992 Z" id="Path"></path>
                <path d="M15.2375391,20.8631836 L14.9724023,21.1282617 C14.7283008,21.3723047 14.7283008,21.7679883 14.9723437,22.0121484 C15.0943359,22.1341992 15.2543555,22.1952539 15.4142578,22.1952539 C15.5741602,22.1952539 15.7341211,22.1341992 15.8561133,22.0121484 L16.12125,21.7470703 C16.3653516,21.5030273 16.3653516,21.1073438 16.1213086,20.8632422 C15.8773828,20.6191992 15.481582,20.6191406 15.2375391,20.8631836 Z" id="Path"></path>
                <path d="M23.8519336,9.59724609 C23.7347461,9.48005859 23.5757812,9.41419922 23.4100195,9.41419922 C23.2442578,9.41419922 23.0853516,9.48005859 22.9681055,9.59724609 L20.3164453,12.2488477 C20.1992578,12.3660937 20.1333984,12.525 20.1333984,12.6907617 C20.1333984,12.8565234 20.1992578,13.0154883 20.3164453,13.1326758 L22.0842188,14.9002734 C22.2062695,15.0223242 22.3662305,15.0833203 22.5261328,15.0833203 C22.6861523,15.0833203 22.8459961,15.0222656 22.9680469,14.9002734 L25.6195898,12.2487891 C25.8636328,12.0047461 25.8636328,11.6090039 25.6195898,11.3649609 L23.8519336,9.59724609 Z M22.5260742,13.5745898 L21.6421875,12.6907617 L23.4099609,10.9230469 L24.2937891,11.8069336 L22.5260742,13.5745898 Z" id="Shape" fill-rule="nonzero"></path>
                <path d="M18.7698633,4.69839844 C18.9298828,4.69839844 19.0898438,4.63734375 19.2118359,4.51523438 L19.4769727,4.24998047 C19.720957,4.00587891 19.7208984,3.61013672 19.4767969,3.36615234 C19.2327539,3.12216797 18.8369531,3.12222656 18.5929688,3.36632813 L18.327832,3.63158203 C18.0838477,3.87568359 18.0839063,4.27142578 18.3280078,4.51541016 C18.4500586,4.63746094 18.6099023,4.69839844 18.7698633,4.69839844 Z" id="Path"></path>
                <path d="M6.28212891,20.9799023 L6.01699219,21.2450391 C5.77294922,21.4890234 5.77294922,21.8847656 6.01699219,22.1289258 C6.13904297,22.250918 6.29900391,22.3119141 6.45890625,22.3119141 C6.61880859,22.3119141 6.77876953,22.250918 6.90082031,22.1289258 L7.16595703,21.8637891 C7.41,21.6196875 7.41,21.2239453 7.16595703,20.9799023 C6.92185547,20.7358008 6.52623047,20.7358008 6.28212891,20.9799023 Z" id="Path"></path>
            </g>
        </g>
    </g>
</svg>