<?xml version="1.0" encoding="UTF-8"?>
<svg width="47px" height="29px" viewBox="0 0 47 29" version="1.1" xmlns="http://www.w3.org/2000/svg" xmlns:xlink="http://www.w3.org/1999/xlink">
    <!-- Generator: Sketch 52.5 (67469) - http://www.bohemiancoding.com/sketch -->
    <title>Group 9</title>
    <desc>Created with Sketch.</desc>
    <g id="Page-2" stroke="none" stroke-width="1" fill="none" fill-rule="evenodd">
        <g id="4-versia" transform="translate(-420.000000, -339.000000)">
            <g id="Group-9" transform="translate(420.000000, 339.000000)">
                <g id="Group-2-Copy">
                    <path d="M2.20952381,0 L44.8217687,0 C45.6933408,0 46.4,0.706659177 46.4,1.57823129 L46.4,26.829932 C46.4,27.7015041 45.6933408,28.4081633 44.8217687,28.4081633 L2.20952381,28.4081633 C1.33795169,28.4081633 0.631292517,27.7015041 0.631292517,26.829932 L0.631292517,1.57823129 C0.631292517,0.706659177 1.33795169,0 2.20952381,0 Z" id="Path" fill="#438940"></path>
                    <path d="M7.36598639,4.73469388 L12.8353741,4.73469388 C13.9399436,4.73469388 14.8353741,5.63012438 14.8353741,6.73469388 L14.8353741,12.2040816 C14.8353741,13.3086511 13.9399436,14.2040816 12.8353741,14.2040816 L7.36598639,14.2040816 C6.26141689,14.2040816 5.36598639,13.3086511 5.36598639,12.2040816 L5.36598639,6.73469388 C5.36598639,5.63012438 6.26141689,4.73469388 7.36598639,4.73469388 Z" id="Path" fill-opacity="0.6" fill="#FFE29C"></path>
                    <path d="M16.4136054,19.7278912 L5.36598639,19.7278912 C4.93020034,19.7278912 4.57687075,19.3745616 4.57687075,18.9387755 C4.57687075,18.5029895 4.93020034,18.1496599 5.36598639,18.1496599 L16.4136054,18.1496599 C16.8493915,18.1496599 17.2027211,18.5029895 17.2027211,18.9387755 C17.2027211,19.3745616 16.8493915,19.7278912 16.4136054,19.7278912 Z" id="Path" fill-opacity="0.5" fill="#FFFFFF"></path>
                    <path d="M22.2898866,19.7278912 L18.5705215,19.7278912 C18.2770923,19.7278912 18.0391837,19.3745616 18.0391837,18.9387755 C18.0391837,18.5029895 18.2770923,18.1496599 18.5705215,18.1496599 L22.2898866,18.1496599 C22.5833159,18.1496599 22.8212245,18.5029895 22.8212245,18.9387755 C22.8212245,19.3745616 22.5833159,19.7278912 22.2898866,19.7278912 Z" id="Path" fill-opacity="0.5" fill="#FFFFFF"></path>
                    <path d="M10.1006803,24.462585 L5.36598639,24.462585 C4.93020034,24.462585 4.57687075,24.1092554 4.57687075,23.6734694 C4.57687075,23.2376833 4.93020034,22.8843537 5.36598639,22.8843537 L10.1006803,22.8843537 C10.5364663,22.8843537 10.8897959,23.2376833 10.8897959,23.6734694 C10.8897959,24.1092554 10.5364663,24.462585 10.1006803,24.462585 Z" id="Path" fill-opacity="0.1" fill="#FFFFFF"></path>
                    <path d="M19.570068,24.462585 L14.8353741,24.462585 C14.3995881,24.462585 14.0462585,24.1092554 14.0462585,23.6734694 C14.0462585,23.2376833 14.3995881,22.8843537 14.8353741,22.8843537 L19.570068,22.8843537 C20.0058541,22.8843537 20.3591837,23.2376833 20.3591837,23.6734694 C20.3591837,24.1092554 20.0058541,24.462585 19.570068,24.462585 Z" id="Path" fill-opacity="0.1" fill="#FFFFFF"></path>
                    <path d="M43.2435374,7.10204082 L21.1482993,7.10204082 C20.7125133,7.10204082 20.3591837,6.74871123 20.3591837,6.31292517 C20.3591837,5.87713911 20.7125133,5.52380952 21.1482993,5.52380952 L43.2435374,5.52380952 C43.6793235,5.52380952 44.0326531,5.87713911 44.0326531,6.31292517 C44.0326531,6.74871123 43.6793235,7.10204082 43.2435374,7.10204082 Z" id="Path" fill-opacity="0.4" fill="#FFFFFF"></path>
                    <path d="M32.1959184,10.2585034 L21.1482993,10.2585034 C20.7125133,10.2585034 20.3591837,9.90517381 20.3591837,9.46938776 C20.3591837,9.0336017 20.7125133,8.68027211 21.1482993,8.68027211 L32.1959184,8.68027211 C32.6317044,8.68027211 32.985034,9.0336017 32.985034,9.46938776 C32.985034,9.90517381 32.6317044,10.2585034 32.1959184,10.2585034 Z" id="Path" fill-opacity="0.4" fill="#FFFFFF"></path>
                </g>
                <text id="4983" font-family="LucidaGrande-Bold, Lucida Grande" font-size="6" font-weight="bold" fill="#FFFFFF">
                    <tspan x="28.2479688" y="23.96">4983</tspan>
                </text>
            </g>
        </g>
    </g>
</svg>