<?xml version="1.0" encoding="UTF-8"?>
<svg width="32px" height="32px" viewBox="0 0 32 32" version="1.1" xmlns="http://www.w3.org/2000/svg" xmlns:xlink="http://www.w3.org/1999/xlink">
    <!-- Generator: Sketch 52.5 (67469) - http://www.bohemiancoding.com/sketch -->
    <title>business-and-finance</title>
    <desc>Created with Sketch.</desc>
    <g id="Page-2" stroke="none" stroke-width="1" fill="none" fill-rule="evenodd">
        <g id="4-versia" transform="translate(-357.000000, -183.000000)" fill="#000000" stroke="#F1F1F1" stroke-width="0.5">
            <g id="business-and-finance" transform="translate(358.000000, 184.000000)">
                <path d="M10.3658235,8.53235294 C11.7989412,8.53235294 12.9648235,9.69864706 12.9648824,11.1321765 C12.9648824,12.4927647 11.9054706,13.7320588 10.2924706,13.7320588 L10.2924706,14.5160588 C10.2924706,15.0033529 9.89741176,15.3984118 9.41011765,15.3984118 C8.92282353,15.3984118 8.52776471,15.0033529 8.52776471,14.5160588 L8.52776471,13.7320588 C7.86305882,13.7320588 7.29064706,13.6222353 6.65511765,13.181 C6.25476471,12.9031176 6.15558824,12.3533529 6.43347059,11.9530588 C6.71135294,11.5526471 7.26111765,11.4533529 7.66147059,11.7314118 C7.87729412,11.8812353 8.12382353,11.965 8.356,11.9673529 L10.3532353,11.9673529 C10.3574706,11.9673529 10.3617647,11.9674118 10.3660588,11.9674118 C10.8264706,11.9674118 11.2001765,11.5943529 11.2001765,11.1321765 C11.2001765,10.6716471 10.8258824,10.297 10.3658824,10.297 L8.45429412,10.297 C7.02117647,10.297 5.85529412,9.13064706 5.85529412,7.69705882 C5.85529412,6.32582353 6.92623529,5.09717647 8.52770588,5.09717647 L8.52770588,4.31317647 C8.52770588,3.82588235 8.92276471,3.43082353 9.41005882,3.43082353 C9.89735294,3.43082353 10.2924118,3.82588235 10.2924118,4.31317647 L10.2924118,5.09723529 L10.3011765,5.09723529 C10.3033529,5.09723529 10.3055294,5.09723529 10.3077647,5.09723529 C11.1185882,5.10329412 11.9094118,5.45452941 12.4775294,6.061 C12.8107059,6.41664706 12.7924706,6.975 12.4368235,7.30817647 C12.0811765,7.64123529 11.5228235,7.62311765 11.1896471,7.26747059 C10.9512353,7.01288235 10.6261765,6.86523529 10.2974706,6.86194118 L8.46694118,6.86194118 C8.46264706,6.86194118 8.45841176,6.86188235 8.45411765,6.86188235 C7.99364706,6.86188235 7.61994118,7.235 7.61994118,7.69711765 C7.61994118,8.15764706 7.99423529,8.53235294 8.45423529,8.53235294 L10.3658235,8.53235294 Z M18.6147647,11.38 C24.5033529,10.1164706 30,14.6373529 30,20.5852941 C30,25.7765882 25.7786471,30 20.5899412,30 C14.6262941,30 10.1376471,24.485 11.3864706,18.6212353 C5.49717647,19.8818235 0,15.3643529 0,9.41476471 C0,4.22347059 4.22135294,0 9.41011765,0 C15.3564706,0 19.8643529,5.49535294 18.6147647,11.38 Z M1.76470588,9.41476471 C1.76470588,14.7335882 7.08964706,18.4427059 12.0713529,16.5884118 C13.0033529,14.608 14.6051765,13.0032353 16.5831176,12.0681176 C18.4290588,7.08182353 14.7175882,1.76470588 9.41011765,1.76470588 C5.19441176,1.76470588 1.76470588,5.19652941 1.76470588,9.41476471 Z M20.5899412,28.2352941 C24.8055882,28.2352941 28.2352941,24.8035294 28.2352941,20.5852941 C28.2352941,16.3671176 24.8055882,12.9353529 20.5899412,12.9353529 C16.3742941,12.9353529 12.9445882,16.3671176 12.9445882,20.5852941 C12.9445882,24.8035294 16.3742941,28.2352941 20.5899412,28.2352941 Z M23.6008824,23.6791765 C24.0652941,23.8266471 24.3222941,24.3226471 24.175,24.7870588 C24.0273529,25.2521765 23.5307059,25.5083529 23.067,25.3610588 C21.4511176,24.848 20.0578824,24.9488235 18.5637647,25.3694118 C17.8097647,25.5820588 17.1727059,24.7746471 17.5538824,24.0905882 C17.9855294,23.3159412 18.2718235,22.4838235 18.4075882,21.625 L17.8460588,21.625 C17.3587647,21.625 16.9637059,21.2299412 16.9637059,20.7426471 C16.9637059,20.2553529 17.3587647,19.8602941 17.8460588,19.8602941 L18.4736471,19.8602941 C18.4586471,19.6735882 18.4645882,19.7387059 18.385,19.0125294 C18.0732941,16.1721176 21.6075882,14.6406471 23.4801765,16.7528824 C23.8035294,17.1175294 23.7699412,17.6752353 23.4053529,17.9984706 C23.0407059,18.3219412 22.483,18.2882353 22.1597647,17.9236471 C21.4174706,17.0865294 20.0154118,17.6905882 20.1391176,18.8201765 C20.2138235,19.5017647 20.2250588,19.5813529 20.2432941,19.8603529 L21.2478235,19.8603529 C21.7351176,19.8603529 22.1301765,20.2554118 22.1301765,20.7427059 C22.1301765,21.23 21.7351176,21.6250588 21.2478235,21.6250588 L20.1904706,21.6250588 C20.1179412,22.1964706 19.992,22.7594118 19.8131765,23.3079412 C21.0818235,23.1639412 22.3691176,23.2881765 23.6008824,23.6791765 Z M21.9117059,2.77482353 C21.4244118,2.77482353 21.0292353,2.37976471 21.0292353,1.89247059 C21.0292353,1.40517647 21.4242941,1.01011765 21.9115882,1.01011765 C24.8042353,1.01011765 27.2428824,3.28994118 27.2428824,6.5 L27.2428824,7.33088235 L28.0375882,6.53576471 C28.3820588,6.19105882 28.9407647,6.19088235 29.2854118,6.53541176 C29.6301176,6.87994118 29.6302353,7.43858824 29.2857647,7.78323529 L26.9846471,10.0855882 C26.6382353,10.4323529 26.0778235,10.4273529 25.7365294,10.0855882 L23.4354706,7.78323529 C23.091,7.43858824 23.0911765,6.87988235 23.4358235,6.53541176 C23.7804706,6.19105882 24.3392353,6.19105882 24.6836471,6.53576471 L25.4782941,7.33082353 L25.4782941,6.5 C25.4782941,4.08041176 23.6407059,2.77482353 21.9117059,2.77482353 Z M8.08829412,27.2251765 C8.57558824,27.2251765 8.97064706,27.6202353 8.97064706,28.1075294 C8.97064706,28.5948235 8.57558824,28.9898824 8.08829412,28.9898824 C5.19564706,28.9898824 2.757,26.7101176 2.757,23.5 L2.757,22.6691765 L1.96229412,23.4642941 C1.61776471,23.809 1.05905882,23.8091176 0.714470588,23.4646471 C0.369764706,23.1201176 0.369647059,22.5614706 0.714117647,22.2168235 L3.01535294,19.9143529 C3.36058824,19.5683529 3.92211765,19.5722941 4.26347059,19.9143529 L6.56458824,22.2167647 C6.90905882,22.5614118 6.90894118,23.1201176 6.56423529,23.4645882 C6.21941176,23.8091765 5.66082353,23.8088235 5.31641176,23.4642353 L4.52170588,22.6691176 L4.52170588,23.5 C4.52170588,25.9195882 6.35929412,27.2251765 8.08829412,27.2251765 Z" id="Combined-Shape"></path>
            </g>
        </g>
    </g>
</svg>