<?xml version="1.0" encoding="UTF-8"?>
<svg width="13px" height="12px" viewBox="0 0 13 12" version="1.1" xmlns="http://www.w3.org/2000/svg" xmlns:xlink="http://www.w3.org/1999/xlink">
    <!-- Generator: Sketch 52.5 (67469) - http://www.bohemiancoding.com/sketch -->
    <title>Combined Shape</title>
    <desc>Created with Sketch.</desc>
    <g id="Date-Picker" stroke="none" stroke-width="1" fill="none" fill-rule="evenodd">
        <g transform="translate(-440.000000, -558.000000)" fill="#999999" id="Combined-Shape">
            <path d="M446.629835,563.571717 C446.870834,563.804868 446.870834,564.194534 446.630451,564.428283 L441.067905,569.822857 C440.823824,570.059048 440.427758,570.059048 440.183677,569.822857 C439.939596,569.586068 439.939596,569.202432 440.183677,568.966241 L445.304392,563.999701 L440.183061,559.033161 C439.93898,558.79697 439.93898,558.413334 440.183061,558.177143 C440.427758,557.940952 440.823208,557.940952 441.067289,558.177143 L446.629835,563.571717 Z M452.819174,563.571717 C453.060173,563.804868 453.060173,564.194534 452.81979,564.428283 L447.257244,569.822857 C447.013163,570.059048 446.617097,570.059048 446.373016,569.822857 C446.128935,569.586068 446.128935,569.202432 446.373016,568.966241 L451.493731,563.999701 L446.372399,559.033161 C446.128319,558.79697 446.128319,558.413334 446.372399,558.177143 C446.617097,557.940952 447.012547,557.940952 447.256627,558.177143 L452.819174,563.571717 Z"></path>
        </g>
    </g>
</svg>