<?xml version="1.0" encoding="UTF-8"?>
<svg width="13px" height="12px" viewBox="0 0 13 12" version="1.1" xmlns="http://www.w3.org/2000/svg" xmlns:xlink="http://www.w3.org/1999/xlink">
    <!-- Generator: Sketch 52.5 (67469) - http://www.bohemiancoding.com/sketch -->
    <title>Combined Shape Copy</title>
    <desc>Created with Sketch.</desc>
    <g id="Date-Picker" stroke="none" stroke-width="1" fill="none" fill-rule="evenodd">
        <g transform="translate(-91.000000, -558.000000)" fill="#999999" id="Combined-Shape-Copy">
            <path d="M97.6298348,563.571717 C97.8708338,563.804868 97.8708338,564.194534 97.6304512,564.428283 L92.0679049,569.822857 C91.8238241,570.059048 91.4277578,570.059048 91.183677,569.822857 C90.9395962,569.586068 90.9395962,569.202432 91.183677,568.966241 L96.3043918,563.999701 L91.1830606,559.033161 C90.9389798,558.79697 90.9389798,558.413334 91.1830606,558.177143 C91.4277578,557.940952 91.8232077,557.940952 92.0672886,558.177143 L97.6298348,563.571717 Z M103.819174,563.571717 C104.060173,563.804868 104.060173,564.194534 103.81979,564.428283 L98.2572437,569.822857 C98.0131629,570.059048 97.6170966,570.059048 97.3730158,569.822857 C97.128935,569.586068 97.128935,569.202432 97.3730158,568.966241 L102.493731,563.999701 L97.3723994,559.033161 C97.1283186,558.79697 97.1283186,558.413334 97.3723994,558.177143 C97.6170966,557.940952 98.0125466,557.940952 98.2566274,558.177143 L103.819174,563.571717 Z" transform="translate(97.500000, 564.000000) scale(-1, 1) translate(-97.500000, -564.000000) "></path>
        </g>
    </g>
</svg>