<?xml version="1.0" encoding="UTF-8"?>
<svg width="18px" height="18px" viewBox="0 0 18 18" version="1.1" xmlns="http://www.w3.org/2000/svg" xmlns:xlink="http://www.w3.org/1999/xlink">
    <!-- Generator: Sketch 52.5 (67469) - http://www.bohemiancoding.com/sketch -->
    <title>Mask</title>
    <desc>Created with Sketch.</desc>
    <defs>
        <path id="path-10" d="M14.0625,15.609375 L16.6875,12.984375 L6.984375,12.984375 L6.984375,11.015625 L16.6875,11.015625 L14.0625,8.390625 L15.515625,6.984375 L20.484375,12 L15.515625,17.015625 L14.0625,15.609375 Z M18.984375,3 C19.5468778,3 20.0234355,3.19531055 20.4140625,3.5859375 C20.8046895,3.97656445 21,4.45312219 21,5.015625 L21,9.65625 L18.984375,7.6875 L18.984375,5.015625 L5.015625,5.015625 L5.015625,18.984375 L18.984375,18.984375 L18.984375,16.3125 L21,14.34375 L21,18.984375 C21,19.5468778 20.8046895,20.0234355 20.4140625,20.4140625 C20.0234355,20.8046895 19.5468778,21 18.984375,21 L5.015625,21 C4.42187203,21 3.93750187,20.8046895 3.5625,20.4140625 C3.18749813,20.0234355 3,19.5468778 3,18.984375 L3,5.015625 C3,4.42187203 3.18749813,3.93750187 3.5625,3.5625 C3.93750187,3.18749813 4.42187203,3 5.015625,3 L18.984375,3 Z"></path>
    </defs>
    <g id="Symbols" stroke="none" stroke-width="1" fill="none" fill-rule="evenodd">
        <g id="icon-/-24x24-/-logout" transform="translate(-3.000000, -3.000000)">
            <mask id="mask-2" fill="white">
                <use xlink:href="#path-10"></use>
            </mask>
            <use id="Mask" fill="#B2B2B2" xlink:href="#path-10"></use>
        </g>
    </g>
</svg>
