<?xml version="1.0" encoding="UTF-8"?>
<svg width="18px" height="15px" viewBox="0 0 18 15" version="1.1" xmlns="http://www.w3.org/2000/svg" xmlns:xlink="http://www.w3.org/1999/xlink">
    <!-- Generator: Sketch 52.5 (67469) - http://www.bohemiancoding.com/sketch -->
    <title>Combined Shape</title>
    <desc>Created with Sketch.</desc>
    <g id="Page-2" stroke="none" stroke-width="1" fill="none" fill-rule="evenodd">
        <path d="M1.72638281,4.38500391 C1.31157422,4.104 0.920003906,3.71752734 0.552058594,3.22569141 C0.184078125,2.73389063 1.52766688e-13,2.27707031 1.52766688e-13,1.85551172 C1.52766688e-13,1.33361719 0.138832031,0.898664063 0.416496094,0.5506875 C0.694195313,0.20278125 1.0906875,0.028828125 1.60590234,0.028828125 L16.3808438,0.028828125 C16.8156563,0.028828125 17.1921094,0.186011719 17.509957,0.500554688 C17.8278398,0.815027344 17.9868516,1.19313281 17.9868516,1.63483594 C17.9868516,2.16341016 17.8229883,2.66864063 17.4949102,3.15024609 C17.1670781,3.6320625 16.7589844,4.04367188 16.2705234,4.38479297 C13.7546016,6.13135547 12.1886367,7.21877344 11.5731211,7.64694141 C11.5062188,7.693875 11.3639063,7.79575781 11.1465,7.95315234 C10.9289531,8.11051172 10.7483906,8.23767188 10.6044961,8.33466797 C10.4606016,8.43159375 10.2866484,8.54026172 10.0826016,8.6608125 C9.87866016,8.78101172 9.68607422,8.87160938 9.50547656,8.93151563 C9.32477344,8.99187891 9.15742969,9.02183203 9.00355078,9.02183203 L8.99342578,9.02183203 L8.98333594,9.02183203 C8.82945703,9.02183203 8.66218359,8.99191406 8.48148047,8.93151563 C8.3008125,8.87160938 8.10840234,8.78111719 7.90428516,8.6608125 C7.70009766,8.54040234 7.52614453,8.43162891 7.38225,8.33466797 C7.23846094,8.23767188 7.05775781,8.11051172 6.84028125,7.95315234 C6.62283984,7.79589844 6.48070313,7.693875 6.41380078,7.64694141 C5.80485938,7.21877344 4.92827344,6.60825 3.78400781,5.81533594 C2.63977734,5.02242188 1.95391406,4.5455625 1.72638281,4.38500391 Z M16.983,5.45888672 C17.3646211,5.19799219 17.6990977,4.90672266 17.9868867,4.58567578 L17.9868867,12.5550703 C17.9868867,12.9970195 17.8297734,13.3747734 17.5151602,13.6893867 C17.2006523,14.004 16.8225469,14.1612539 16.3809844,14.1612539 L1.60600781,14.1612539 C1.16433984,14.1612539 0.786199219,14.004 0.471726562,13.6893867 C0.157183594,13.3748789 -1.50990331e-13,12.9969844 -1.50990331e-13,12.5550703 L-1.50990331e-13,4.58567578 C0.294433594,4.91350781 0.632355469,5.20477734 1.01387109,5.45888672 C3.43617187,7.1049375 5.09899219,8.25939844 6.00240234,8.9218125 C6.38377734,9.20274609 6.69329297,9.42205078 6.93077344,9.57919922 C7.16832422,9.73645312 7.48455469,9.89704687 7.87928906,10.0609102 C8.27402344,10.2250195 8.64210937,10.3068281 8.98337109,10.3068281 L8.99346094,10.3068281 L9.00369141,10.3068281 C9.34502344,10.3068281 9.71289844,10.2250195 10.1076328,10.0609102 C10.5025078,9.89704687 10.8185273,9.73645312 11.0561484,9.57919922 C11.2937695,9.42205078 11.6031797,9.20274609 11.9845898,8.9218125 C13.122,8.09866406 14.7884062,6.94427344 16.983,5.45888672 Z" id="Combined-Shape" fill="#4A4A4A"></path>
    </g>
</svg>