<?xml version="1.0" encoding="UTF-8"?>
<svg width="20px" height="15px" viewBox="0 0 20 15" version="1.1" xmlns="http://www.w3.org/2000/svg" xmlns:xlink="http://www.w3.org/1999/xlink">
    <!-- Generator: Sketch 52.5 (67469) - http://www.bohemiancoding.com/sketch -->
    <title>Group Copy 2</title>
    <desc>Created with Sketch.</desc>
    <g id="Page-2" stroke="none" stroke-width="1" fill="none" fill-rule="evenodd">
        <g id="4-versia" transform="translate(-1534.000000, -28.000000)">
            <g id="Group-Copy-2" transform="translate(1535.000000, 26.000000)">
                <rect id="Rectangle" x="0" y="0" width="18" height="18"></rect>
                <g id="email" transform="translate(0.000000, 3.000000)" fill="#333333" stroke="#FFFFFF" stroke-width="0.1">
                    <path d="M17.1,0.0257695313 L0.9,0.0257695313 C0.402960938,0.0257695313 0,0.428695313 0,0.925769531 L0,12.9257578 C0,13.4227969 0.402925781,13.8257578 0.9,13.8257578 L17.1,13.8257578 C17.5970391,13.8257578 18,13.422832 18,12.9257578 L18,0.925769531 C18,0.428730469 17.5970742,0.0257695313 17.1,0.0257695313 Z M17.3999883,12.925793 C17.3999883,13.0914844 17.2656914,13.2257813 17.1,13.2257813 L0.9,13.2257813 C0.734308594,13.2257813 0.600011719,13.0914844 0.600011719,12.925793 L0.600011719,0.925769531 C0.600011719,0.760078125 0.734308594,0.62578125 0.9,0.62578125 L17.1,0.62578125 C17.2656914,0.62578125 17.3999883,0.760078125 17.3999883,0.925769531 L17.3999883,12.925793 Z" id="Shape" fill-rule="nonzero"></path>
                    <path d="M16.5261094,1.22688281 C16.446832,1.21995703 16.3680469,1.2448125 16.3071211,1.296 L9.38608594,7.10996484 C9.16287891,7.29759375 8.83708594,7.29759375 8.61387891,7.10996484 L1.69291406,1.29596484 C1.61082422,1.22705859 1.49818359,1.20716016 1.39746094,1.24379297 C1.29673828,1.28042578 1.22319141,1.36803516 1.20455859,1.47360938 C1.18592578,1.57918359 1.22501953,1.68665625 1.30710937,1.7555625 L8.22810937,7.56924609 C8.67417187,7.94482031 9.32582812,7.94482031 9.77192578,7.56924609 L16.6928906,1.75559766 C16.7538516,1.70444531 16.7919609,1.63117969 16.7988867,1.55190234 C16.8058125,1.472625 16.780957,1.39383984 16.7297695,1.33291406 C16.6786523,1.27191797 16.6053867,1.23380859 16.5261094,1.22688281 Z" id="Path"></path>
                    <path d="M5.76998437,7.52800781 C5.66377734,7.5043125 5.55310547,7.53996094 5.48068359,7.62117187 L1.28067187,12.1211719 C1.20466406,12.1990078 1.17675,12.3119297 1.20775781,12.4162031 C1.23876562,12.5205117 1.32380859,12.5998242 1.42998047,12.6235195 C1.5361875,12.6472148 1.64685937,12.6115664 1.71928125,12.5303555 L5.91929297,8.03035547 C5.99530078,7.95251953 6.02321484,7.83959766 5.99220703,7.73532422 C5.96119922,7.63105078 5.87619141,7.55170313 5.76998437,7.52800781 Z" id="Path"></path>
                    <path d="M12.5193164,7.62117187 C12.4469297,7.53996094 12.3362227,7.5043125 12.2300156,7.52800781 C12.1238086,7.55170313 12.0388008,7.63105078 12.007793,7.73532422 C11.9767852,7.83963281 12.0046992,7.95251953 12.080707,8.03035547 L16.2807187,12.5303555 C16.394625,12.6470039 16.5808125,12.6513633 16.7000273,12.5401289 C16.8192422,12.4288945 16.8278203,12.2428477 16.7193281,12.1211367 L12.5193164,7.62117187 Z" id="Path"></path>
                </g>
            </g>
        </g>
    </g>
</svg>