<?xml version="1.0" encoding="UTF-8"?>
<svg width="18px" height="18px" viewBox="0 0 18 18" version="1.1" xmlns="http://www.w3.org/2000/svg" xmlns:xlink="http://www.w3.org/1999/xlink">
    <!-- Generator: Sketch 52.5 (67469) - http://www.bohemiancoding.com/sketch -->
    <title>Mask</title>
    <desc>Created with Sketch.</desc>
    <defs>
        <path d="M8.25,3 L15.75,3 L21,8.25 L21,15.75 L15.75,21 L8.25,21 L3,15.75 L3,8.25 L8.25,3 Z M9.09375,5.015625 L5.015625,9.09375 L5.015625,14.90625 L9.09375,18.984375 L14.90625,18.984375 L18.984375,14.90625 L18.984375,9.09375 L14.90625,5.015625 L9.09375,5.015625 Z M9.140625,7.6875 L12,10.59375 L14.859375,7.6875 L16.3125,9.140625 L13.40625,12 L16.3125,14.859375 L14.859375,16.3125 L12,13.40625 L9.140625,16.3125 L7.6875,14.859375 L10.59375,12 L7.6875,9.140625 L9.140625,7.6875 Z" id="path-1"></path>
    </defs>
    <g id="Symbols" stroke="none" stroke-width="1" fill="none" fill-rule="evenodd">
        <g id="icon-/-24x24-/-error" transform="translate(-3.000000, -3.000000)">
            <mask id="mask-2" fill="white">
                <use xlink:href="#path-1"></use>
            </mask>
            <use id="Mask" fill="#000000" xlink:href="#path-1"></use>
        </g>
    </g>
</svg>