<?xml version="1.0" encoding="UTF-8"?>
<svg width="32px" height="32px" viewBox="0 0 32 32" version="1.1" xmlns="http://www.w3.org/2000/svg" xmlns:xlink="http://www.w3.org/1999/xlink">
    <!-- Generator: Sketch 52.5 (67469) - http://www.bohemiancoding.com/sketch -->
    <title>Group 2</title>
    <desc>Created with Sketch.</desc>
    <defs>
        <circle id="path-1" cx="12" cy="12" r="12"></circle>
        <filter x="-29.2%" y="-20.8%" width="158.3%" height="158.3%" filterUnits="objectBoundingBox" id="filter-2">
            <feOffset dx="0" dy="2" in="SourceAlpha" result="shadowOffsetOuter1"></feOffset>
            <feGaussianBlur stdDeviation="2" in="shadowOffsetOuter1" result="shadowBlurOuter1"></feGaussianBlur>
            <feColorMatrix values="0 0 0 0 0   0 0 0 0 0.466666667   0 0 0 0 0.196078431  0 0 0 0.54834692 0" type="matrix" in="shadowBlurOuter1"></feColorMatrix>
        </filter>
    </defs>
    <g id="Symbols" stroke="none" stroke-width="1" fill="none" fill-rule="evenodd">
        <g id="ic_XLS" transform="translate(4.000000, 2.000000)">
            <g id="Group-2">
                <g id="Oval-5">
                    <use fill="black" fill-opacity="1" filter="url(#filter-2)" xlink:href="#path-1"></use>
                    <use fill="#2E7D32" fill-rule="evenodd" xlink:href="#path-1"></use>
                </g>
                <g id="excel" transform="translate(4.000000, 5.000000)" fill-rule="nonzero">
                    <path d="M15.5,12.1123527 L8.5,12.1123527 C8.224,12.1123527 8,11.9041535 8,11.6476224 C8,11.3910913 8,2.60954772 8,2.3530166 C8,2.09648548 8.224,1.88828631 8.5,1.88828631 L15.5,1.88828631 C15.776,1.88828631 16,2.09648548 16,2.3530166 L16,11.6476224 C16,11.9041535 15.776,12.1123527 15.5,12.1123527 Z" id="Shape" stroke="#FFFFFF" stroke-width="0.936"></path>
                    <g id="Group" transform="translate(8.000000, 3.746888)" fill="#FFFFFF">
                        <path d="M2.5,0.929780083 L0.5,0.929780083 C0.224,0.929780083 0,0.721580913 0,0.465049793 C0,0.208518672 0.224,0.000319502075 0.5,0.000319502075 L2.5,0.000319502075 C2.776,0.000319502075 3,0.208518672 3,0.465049793 C3,0.721580913 2.776,0.929780083 2.5,0.929780083 Z" id="Shape"></path>
                        <path d="M2.5,2.78870124 L0.5,2.78870124 C0.224,2.78870124 0,2.58050207 0,2.32397095 C0,2.06743983 0.224,1.85924066 0.5,1.85924066 L2.5,1.85924066 C2.776,1.85924066 3,2.06743983 3,2.32397095 C3,2.58050207 2.776,2.78870124 2.5,2.78870124 Z" id="Shape"></path>
                        <path d="M2.5,4.64762241 L0.5,4.64762241 C0.224,4.64762241 0,4.43942324 0,4.18289212 C0,3.926361 0.224,3.71816183 0.5,3.71816183 L2.5,3.71816183 C2.776,3.71816183 3,3.926361 3,4.18289212 C3,4.43942324 2.776,4.64762241 2.5,4.64762241 Z" id="Shape"></path>
                        <path d="M2.5,6.50654357 L0.5,6.50654357 C0.224,6.50654357 0,6.2983444 0,6.04181328 C0,5.78528216 0.224,5.57708299 0.5,5.57708299 L2.5,5.57708299 C2.776,5.57708299 3,5.78528216 3,6.04181328 C3,6.2983444 2.776,6.50654357 2.5,6.50654357 Z" id="Shape"></path>
                        <path d="M5.5,0.929780083 L4.5,0.929780083 C4.224,0.929780083 4,0.721580913 4,0.465049793 C4,0.208518672 4.224,0.000319502075 4.5,0.000319502075 L5.5,0.000319502075 C5.776,0.000319502075 6,0.208518672 6,0.465049793 C6,0.721580913 5.776,0.929780083 5.5,0.929780083 Z" id="Shape"></path>
                        <path d="M5.5,2.78870124 L4.5,2.78870124 C4.224,2.78870124 4,2.58050207 4,2.32397095 C4,2.06743983 4.224,1.85924066 4.5,1.85924066 L5.5,1.85924066 C5.776,1.85924066 6,2.06743983 6,2.32397095 C6,2.58050207 5.776,2.78870124 5.5,2.78870124 Z" id="Shape"></path>
                        <path d="M5.5,4.64762241 L4.5,4.64762241 C4.224,4.64762241 4,4.43942324 4,4.18289212 C4,3.926361 4.224,3.71816183 4.5,3.71816183 L5.5,3.71816183 C5.776,3.71816183 6,3.926361 6,4.18289212 C6,4.43942324 5.776,4.64762241 5.5,4.64762241 Z" id="Shape"></path>
                        <path d="M5.5,6.50654357 L4.5,6.50654357 C4.224,6.50654357 4,6.2983444 4,6.04181328 C4,5.78528216 4.224,5.57708299 4.5,5.57708299 L5.5,5.57708299 C5.776,5.57708299 6,5.78528216 6,6.04181328 C6,6.2983444 5.776,6.50654357 5.5,6.50654357 Z" id="Shape"></path>
                    </g>
                    <path d="M8.819,0.136253112 C8.705,0.0479543568 8.552,0.00984647303 8.408,0.0377302905 L0.408,1.43192116 C0.171,1.47281743 0,1.66428631 0,1.88828631 L0,12.1123527 C0,12.3354232 0.171,12.5278216 0.408,12.5687178 L8.408,13.9629087 C8.438,13.9684855 8.469,13.9712739 8.5,13.9712739 C8.616,13.9712739 8.729,13.9340954 8.819,13.8643859 C8.934,13.7760871 9,13.6441037 9,13.5065436 L9,0.494095436 C9,0.355605809 8.934,0.224551867 8.819,0.136253112 Z" id="Shape" fill="#FFFFFF"></path>
                    <path d="M6.876,8.55344813 L5.295,6.87391286 L6.894,4.96294191 C7.064,4.7603195 7.024,4.46846888 6.807,4.31046058 C6.59,4.15245228 6.276,4.18963071 6.105,4.39132365 L4.624,6.1610166 L3.376,4.83560581 C3.193,4.64041909 2.877,4.62275934 2.671,4.79192116 C2.463,4.96108299 2.442,5.25479253 2.624,5.44719087 L3.999,6.9083029 L2.605,8.57389627 C2.435,8.77651867 2.475,9.06836929 2.692,9.22637759 C2.784,9.29236929 2.893,9.32397095 3,9.32397095 C3.149,9.32397095 3.296,9.26262656 3.395,9.14458506 L4.67,7.62026971 L6.124,9.16410373 C6.223,9.27006224 6.361,9.32397095 6.5,9.32397095 C6.617,9.32397095 6.734,9.28586307 6.829,9.20871784 C7.037,9.03955602 7.058,8.74584647 6.876,8.55344813 Z" id="Shape" fill="#2E7D32"></path>
                </g>
            </g>
        </g>
    </g>
</svg>