<?xml version="1.0" encoding="UTF-8"?>
<svg width="22px" height="16px" viewBox="0 0 22 16" version="1.1" xmlns="http://www.w3.org/2000/svg" xmlns:xlink="http://www.w3.org/1999/xlink">
    <!-- Generator: Sketch 52.5 (67469) - http://www.bohemiancoding.com/sketch -->
    <title>Mask</title>
    <desc>Created with Sketch.</desc>
    <defs>
        <path id="path-14" d="M12,9 C12.8437542,9.03125016 13.5468722,9.32812219 14.109375,9.890625 C14.6718778,10.4531278 14.953125,11.1562458 14.953125,12 C14.953125,12.8437542 14.6718778,13.5468722 14.109375,14.109375 C13.5468722,14.6718778 12.8437542,14.953125 12,14.953125 C11.1562458,14.953125 10.4531278,14.6718778 9.890625,14.109375 C9.32812219,13.5468722 9.046875,12.8437542 9.046875,12 C9.046875,11.1562458 9.32812219,10.4531278 9.890625,9.890625 C10.4531278,9.32812219 11.1562458,9.03125016 12,9 Z M12,4.5 C14.5312627,4.53125016 16.7734277,5.23436812 18.7265625,6.609375 C20.6796973,7.98438188 22.1093705,9.78123891 23.015625,12 C22.1093705,14.2187611 20.6796973,16.0156181 18.7265625,17.390625 C16.7734277,18.7656319 14.5312627,19.4687498 12,19.5 C9.46873734,19.4687498 7.22657227,18.7656319 5.2734375,17.390625 C3.32030273,16.0156181 1.89062953,14.2187611 0.984375,12 C1.89062953,9.78123891 3.32030273,7.98438188 5.2734375,6.609375 C7.22657227,5.23436812 9.46873734,4.53125016 12,4.5 Z M3.1875,12 C4.03125422,13.6875084 5.23436719,15.0234326 6.796875,16.0078125 C8.35938281,16.9921924 10.0937405,17.484375 12,17.484375 C13.9062595,17.484375 15.6406172,16.9921924 17.203125,16.0078125 C18.7656328,15.0234326 19.9687458,13.6875084 20.8125,12 C19.9687458,10.3124916 18.7656328,8.97656742 17.203125,7.9921875 C15.6406172,7.00780758 13.9062595,6.515625 12,6.515625 C10.0937405,6.515625 8.35938281,7.00780758 6.796875,7.9921875 C5.23436719,8.97656742 4.03125422,10.3124916 3.1875,12 Z"></path>
    </defs>
    <g id="Symbols" stroke="none" stroke-width="1" fill="none" fill-rule="evenodd">
        <g id="icon-/-24x24-/-eye" transform="translate(-1.000000, -4.000000)">
            <mask id="mask-2" fill="white">
                <use xlink:href="#path-14"></use>
            </mask>
            <use id="Mask" fill="#000000" xlink:href="#path-14"></use>
        </g>
    </g>
</svg>
