<?xml version="1.0" encoding="UTF-8"?>
<svg width="24px" height="20px" viewBox="0 0 24 20" version="1.1" xmlns="http://www.w3.org/2000/svg" xmlns:xlink="http://www.w3.org/1999/xlink">
    <!-- Generator: Sketch 52.5 (67469) - http://www.bohemiancoding.com/sketch -->
    <title>Shape</title>
    <desc>Created with Sketch.</desc>
    <g id="Symbols" stroke="none" stroke-width="1" fill="none" fill-rule="evenodd">
        <g id="ic_filter_passive" fill="#E6E9ED" fill-rule="nonzero">
            <path d="M22.5074092,0 L1.49254396,0 C0.669561192,0 0,0.679528046 0,1.51481992 L0,3.2975879 C0,4.13287978 0.669561192,4.8124554 1.49254396,4.8124554 L2.19130822,4.8124554 L9.90490253,12.6414197 L9.90490253,19.4950283 C9.90490253,19.6992721 10.026121,19.8833912 10.2120269,19.9615586 C10.2735737,19.9873924 10.3382142,20 10.4022922,20 C10.5318076,20 10.6590729,19.9487131 10.754229,19.8520862 L13.9679258,16.5902755 C14.0612069,16.4955516 14.1136599,16.367144 14.1136599,16.2332176 L14.1136599,12.6413245 L21.8271136,4.8124554 L22.507456,4.8124554 C23.3304388,4.8124554 24,4.13287978 24,3.2975879 L24,1.51481992 C23.9999531,0.679528046 23.3303919,0 22.5074092,0 Z M13.2640991,12.0753128 C13.1658493,12.1750321 13.1174744,12.3060564 13.1185994,12.4367477 L13.1185994,16.0241686 L10.8999162,18.276036 L10.8999162,12.433798 C10.9002443,12.3040582 10.8517757,12.1742709 10.7542759,12.0752652 L3.59849297,4.8124554 L20.419882,4.8124554 L13.2640991,12.0753128 Z M23.0049394,3.2975879 C23.0049394,3.57600266 22.781768,3.80255959 22.5074092,3.80255959 L1.49254396,3.80255959 C1.218232,3.80255959 0.995013682,3.57605024 0.995013682,3.2975879 L0.995013682,1.51481992 C0.995013682,1.23640516 1.21818512,1.00984823 1.49254396,1.00984823 L22.507456,1.00984823 C22.781768,1.00984823 23.0049863,1.23635758 23.0049863,1.51481992 L23.0049863,3.2975879 L23.0049394,3.2975879 Z" id="Shape"></path>
        </g>
    </g>
</svg>