<?xml version="1.0" encoding="UTF-8"?>
<svg width="17px" height="21px" viewBox="0 0 17 21" version="1.1" xmlns="http://www.w3.org/2000/svg" xmlns:xlink="http://www.w3.org/1999/xlink">
    <!-- Generator: Sketch 52.5 (67469) - http://www.bohemiancoding.com/sketch -->
    <title>ui</title>
    <desc>Created with Sketch.</desc>
    <g id="Page-2" stroke="none" stroke-width="1" fill="none" fill-rule="evenodd">
        <g id="4-versia" transform="translate(-1084.000000, -536.000000)" fill="#000000">
            <g id="ui" transform="translate(1084.000000, 536.900000)">
                <path d="M16.6850881,0 L0.294103862,0 C0.131565856,0.000372249414 -4.23617441e-07,0.132500116 9.7329875e-10,0.295359235 L9.7329875e-10,2.19730393 C-5.94062039e-06,2.27060522 0.0271915731,2.34128983 0.0763052983,2.39561656 L7.05950334,10.1146192 L7.05950334,19.7046804 C7.05951809,19.8136467 7.11940965,19.9137534 7.21531925,19.9651215 C7.31122885,20.0164895 7.42757483,20.0107735 7.5180089,19.9502505 L9.78880738,18.4295724 C9.87061429,18.3747416 9.91971289,18.2826188 9.91968866,18.1840022 L9.91968866,10.1146192 L16.9035605,2.39561656 C16.9526742,2.34128983 16.9798717,2.27060522 16.9798658,2.19730393 L16.9798658,0.295359235 C16.9798658,0.132236834 16.8478893,2.99807655e-16 16.6850881,0 Z M7.64905862,19.1521054 L7.64905862,10.295379 L9.33013338,10.295379 L9.33013338,18.026196 L7.64905862,19.1521054 Z M16.3896367,2.08337965 L9.49487197,9.70466056 L7.48432003,9.70466056 L0.589555278,2.08337965 L0.589555278,0.590718469 L16.3896367,0.590718469 L16.3896367,2.08337965 Z" id="Shape" fill-rule="nonzero"></path>
                <path d="M10.2300782,7.31543546 C10.3142356,7.31562816 10.3945254,7.28019632 10.4509993,7.21794311 L12.4732775,4.99274376 C12.583604,4.87129146 12.5743597,4.68360157 12.4526299,4.57352665 C12.3309001,4.46345172 12.1427813,4.47267491 12.0324549,4.5941272 L10.0098368,6.81932655 C9.93084313,6.90640505 9.91072694,7.03176017 9.95852281,7.13909238 C10.0063187,7.24642459 10.1130407,7.31555489 10.2307579,7.31543546 L10.2300782,7.31543546 Z" id="Path"></path>
            </g>
        </g>
    </g>
</svg>