<?xml version="1.0" encoding="UTF-8"?>
<svg width="14px" height="14px" viewBox="0 0 14 14" version="1.1" xmlns="http://www.w3.org/2000/svg" xmlns:xlink="http://www.w3.org/1999/xlink">
    <!-- Generator: Sketch 52.5 (67469) - http://www.bohemiancoding.com/sketch -->
    <title>Shape</title>
    <desc>Created with Sketch.</desc>
    <defs>
        <path d="M8,4.5 C7.517,4.5 7.125,4.892 7.125,5.375 C7.125,5.858 7.517,6.25 8,6.25 C8.483,6.25 8.875,5.85843464 8.875,5.375 C8.875,4.89156536 8.48343464,4.5 8,4.5 Z M8,7.125 C7.517,7.125 7.125,7.51656536 7.125,8 L7.125,10.625 C7.125,11.108 7.517,11.5 8,11.5 C8.483,11.5 8.875,11.108 8.875,10.625 L8.875,8 C8.875,7.517 8.48343464,7.125 8,7.125 Z M8,1 C4.14036928,1 1,4.14036928 1,8 C1,11.8596307 4.14036928,15 8,15 C11.8596307,15 15,11.8596307 15,8 C15,4.14036928 11.8596307,1 8,1 Z M8,14 C4.69123379,14 2,11.3083077 2,8 C2,4.69169231 4.69123379,2 8,2 C11.3083077,2 14,4.69169231 14,8 C14,11.3083077 11.3083077,14 8,14 Z" id="path-1"></path>
    </defs>
    <g id="Symbols" stroke="none" stroke-width="1" fill="none" fill-rule="evenodd">
        <g id="Icon-/-16x16-/-Info" transform="translate(-1.000000, -1.000000)">
            <g id="information-circular-button-symbol">
                <mask id="mask-2" fill="white">
                    <use xlink:href="#path-1"></use>
                </mask>
                <use id="Shape" fill="#A3D3A4" fill-rule="nonzero" xlink:href="#path-1"></use>
            </g>
        </g>
    </g>
</svg>