<?xml version="1.0" encoding="UTF-8"?>
<svg width="20px" height="20px" viewBox="0 0 20 20" version="1.1" xmlns="http://www.w3.org/2000/svg" xmlns:xlink="http://www.w3.org/1999/xlink">
    <!-- Generator: Sketch 52.5 (67469) - http://www.bohemiancoding.com/sketch -->
    <title>Mask</title>
    <desc>Created with Sketch.</desc>
    <defs>
        <path d="M11.015625,9 L11.015625,6.984375 L12.984375,6.984375 L12.984375,9 L11.015625,9 Z M12,20.015625 C14.2500113,19.9531247 16.1328049,19.1640701 17.6484375,17.6484375 C19.1640701,16.1328049 19.9531247,14.2500113 20.015625,12 C19.9531247,9.74998875 19.1640701,7.86719508 17.6484375,6.3515625 C16.1328049,4.83592992 14.2500113,4.04687531 12,3.984375 C9.74998875,4.04687531 7.86719508,4.83592992 6.3515625,6.3515625 C4.83592992,7.86719508 4.04687531,9.74998875 3.984375,12 C4.04687531,14.2500113 4.83592992,16.1328049 6.3515625,17.6484375 C7.86719508,19.1640701 9.74998875,19.9531247 12,20.015625 Z M12,2.015625 C14.8437642,2.07812531 17.2031156,3.04686562 19.078125,4.921875 C20.9531344,6.79688437 21.9218747,9.15623578 21.984375,12 C21.9218747,14.8437642 20.9531344,17.2031156 19.078125,19.078125 C17.2031156,20.9531344 14.8437642,21.9218747 12,21.984375 C9.15623578,21.9218747 6.79688437,20.9531344 4.921875,19.078125 C3.04686563,17.2031156 2.07812531,14.8437642 2.015625,12 C2.07812531,9.15623578 3.04686563,6.79688437 4.921875,4.921875 C6.79688437,3.04686562 9.15623578,2.07812531 12,2.015625 Z M11.015625,17.015625 L11.015625,11.015625 L12.984375,11.015625 L12.984375,17.015625 L11.015625,17.015625 Z" id="path-1"></path>
    </defs>
    <g id="Symbols" stroke="none" stroke-width="1" fill="none" fill-rule="evenodd">
        <g id="icon-/-24x24-/-info" transform="translate(-2.000000, -2.000000)">
            <mask id="mask-2" fill="white">
                <use xlink:href="#path-1"></use>
            </mask>
            <use id="Mask" fill="#000000" xlink:href="#path-1"></use>
        </g>
    </g>
</svg>