<?xml version="1.0" encoding="UTF-8"?>
<svg width="17px" height="17px" viewBox="0 0 17 17" version="1.1" xmlns="http://www.w3.org/2000/svg" xmlns:xlink="http://www.w3.org/1999/xlink">
    <!-- Generator: Sketch 52.5 (67469) - http://www.bohemiancoding.com/sketch -->
    <title>Shape</title>
    <desc>Created with Sketch.</desc>
    <g id="Page-2" stroke="none" stroke-width="1" fill="none" fill-rule="evenodd">
        <path d="M14.5106087,2.4893913 C11.1911739,-0.829673913 5.80919565,-0.830043478 2.4893913,2.4893913 C-0.830043478,5.80882609 -0.829673913,11.1908043 2.4893913,14.5106087 C5.80882609,17.8293043 11.1908043,17.8296739 14.5106087,14.5106087 C17.8296739,11.1908043 17.8293043,5.80919565 14.5106087,2.4893913 Z M9.60832609,12.1956522 C9.60832609,12.8080217 9.112,13.3043478 8.49963043,13.3043478 C7.88726087,13.3043478 7.39093478,12.8080217 7.39093478,12.1956522 L7.39093478,7.76086957 C7.39093478,7.1485 7.88726087,6.65217391 8.49963043,6.65217391 C9.112,6.65217391 9.60832609,7.1485 9.60832609,7.76086957 L9.60832609,12.1956522 Z M8.48004348,5.86573913 C7.84143478,5.86573913 7.41569565,5.4133913 7.429,4.85497826 C7.41569565,4.26958696 7.84143478,3.83091304 8.49297826,3.83091304 C9.1448913,3.83091304 9.55732609,4.26995652 9.571,4.85497826 C9.57063043,5.4133913 9.14526087,5.86573913 8.48004348,5.86573913 Z" id="Shape" fill="#4A4A4A" fill-rule="nonzero"></path>
    </g>
</svg>