<?xml version="1.0" encoding="UTF-8"?>
<svg width="32px" height="20px" viewBox="0 0 32 20" version="1.1" xmlns="http://www.w3.org/2000/svg" xmlns:xlink="http://www.w3.org/1999/xlink">
    <!-- Generator: Sketch 52.5 (67469) - http://www.bohemiancoding.com/sketch -->
    <title>_Group_</title>
    <desc>Created with Sketch.</desc>
    <g id="inputs" stroke="none" stroke-width="1" fill="none" fill-rule="evenodd">
        <g transform="translate(-1630.000000, -1284.000000)" fill-rule="nonzero" id="_Group_">
            <g transform="translate(1630.000000, 1284.000000)">
                <rect id="Rectangle-path" fill="#FF5F00" x="12" y="2" width="9" height="16"></rect>
                <path d="M12.2228327,10.0013889 C12.2195974,6.932407 13.6125127,4.03246686 16,2.13762313 C11.945325,-1.08453425 6.12264915,-0.615199166 2.62399249,3.2157923 C-0.874664164,7.04678377 -0.874664164,12.9532162 2.62399249,16.7842077 C6.12264915,20.6151992 11.945325,21.0845343 16,17.8623769 C13.6132722,15.9681347 12.2204421,13.069396 12.2228327,10.0013889 Z" id="_Path_" fill="#EB001B"></path>
                <path d="M32,10.0013887 C31.9999117,13.8296312 29.8381242,17.3217735 26.4327568,18.9946894 C23.0273895,20.6676054 18.9762993,20.2275925 16,17.861526 C18.3854696,15.9658808 19.778278,13.0678412 19.778278,10 C19.778278,6.93215884 18.3854696,4.0341192 16,2.13847402 C18.9762993,-0.227592506 23.0273895,-0.667605378 26.4327568,1.00531056 C29.8381242,2.67822649 31.9999117,6.17036882 32,9.99861128 L32,10.0013887 Z" id="Shape" fill="#F79E1B"></path>
                <path d="M31.2376238,16.4964539 L31.2376238,16.0851064 L31.3927393,16.0851064 L31.3927393,16 L31,16 L31,16.0851064 L31.1683168,16.0851064 L31.1683168,16.4964539 L31.2376238,16.4964539 Z M32,16.4964539 L32,16 L31.8811881,16 L31.7425743,16.3546099 L31.6039604,16 L31.4983498,16 L31.4983498,16.4964539 L31.5841584,16.4964539 L31.5841584,16.1241135 L31.7128713,16.4468085 L31.8019802,16.4468085 L31.9306931,16.1241135 L31.9306931,16.5 L32,16.4964539 Z" id="Shape" fill="#F79E1B"></path>
            </g>
        </g>
    </g>
</svg>