<?xml version="1.0" encoding="UTF-8"?>
<svg width="30px" height="20px" viewBox="0 0 30 20" version="1.1" xmlns="http://www.w3.org/2000/svg" xmlns:xlink="http://www.w3.org/1999/xlink">
    <!-- Generator: Sketch 52.5 (67469) - http://www.bohemiancoding.com/sketch -->
    <title>Group 11</title>
    <desc>Created with Sketch.</desc>
    <g id="Page-2" stroke="none" stroke-width="1" fill="none" fill-rule="evenodd">
        <g id="4-versia" transform="translate(-696.000000, -189.000000)">
            <g id="Group-11" transform="translate(696.000000, 189.000000)">
                <g id="bank" fill="#000000" fill-rule="nonzero">
                    <path d="M26.8240709,0.374182227 L1.02897065,0.374182227 C0.476685896,0.374182227 0.0289706459,0.821897477 0.0289706459,1.37418223 L0.0289706459,16.4788593 C0.0289706459,17.031144 0.476685896,17.4788593 1.02897065,17.4788593 L2.70157644,17.4788593 L2.70157644,18.6169439 C2.70157644,19.1692287 3.14929169,19.6169439 3.70157644,19.6169439 L28.9621555,19.6169439 C29.5144403,19.6169439 29.9621555,19.1692287 29.9621555,18.6169439 L29.9621555,2.9777457 C29.9621555,2.42546095 29.5144403,1.9777457 28.9621555,1.9777457 L27.8240709,1.9777457 L27.8240709,1.37418223 C27.8240709,0.821897477 27.3763556,0.374182227 26.8240709,0.374182227 Z M1.09801296,1.44322454 L26.7550286,1.44322454 L26.7550286,16.409817 L1.09801296,16.409817 L1.09801296,1.44322454 Z M28.8931132,3.04678802 L28.8931132,18.5479016 L3.77061875,18.5479016 L3.77061875,17.4788593 L26.8240709,17.4788593 C27.3763556,17.4788593 27.8240709,17.031144 27.8240709,16.4788593 L27.8240709,3.04678802 L28.8931132,3.04678802 Z" id="Shape"></path>
                    <path d="M23.0133804,3.04678802 L23.0133804,2.51226686 L4.83966107,2.51226686 L4.83966107,3.04678802 C4.83966107,4.2275369 3.88232532,5.18487265 2.70157644,5.18487265 L2.16705528,5.18487265 L2.16705528,12.6681689 L2.70157644,12.6681689 C3.88232532,12.6681689 4.83966107,13.6252436 4.83966107,14.8062535 L4.83966107,15.3407747 L23.0133804,15.3407747 L23.0133804,14.8062535 C23.0133804,13.6252436 23.9704551,12.6681689 25.1514651,12.6681689 L25.6859862,12.6681689 L25.6859862,5.18487265 L25.1514651,5.18487265 C23.9704551,5.18487265 23.0133804,4.2275369 23.0133804,3.04678802 Z M24.6169439,11.6434959 C23.2720282,11.873434 22.2186456,12.9268166 21.9887075,14.2717323 L5.86433392,14.2717323 C5.63439588,12.9268166 4.58075238,11.873434 3.23609759,11.6434959 L3.23609759,6.2095455 C4.58075238,5.97960746 5.63439588,4.92596396 5.86433392,3.58130918 L21.9887075,3.58130918 C22.2186456,4.92596396 23.2720282,5.97960746 24.6169439,6.2095455 L24.6169439,11.6434959 Z" id="Shape"></path>
                </g>
                <g id="Group-12" transform="translate(8.000000, 6.000000)" fill="#1E201D">
                    <g id="right-arrow-copy" transform="translate(3.500000, 2.515625) scale(-1, 1) translate(-3.500000, -2.515625) ">
                        <path d="M4.63859375,0.22028125 C4.54475,0.12315625 4.3885625,0.12315625 4.2914375,0.22028125 C4.19759375,0.314125 4.19759375,0.4703125 4.2914375,0.5639375 L6.05171875,2.32421875 L0.24303125,2.32421875 C0.107625,2.3244375 0,2.4320625 0,2.56746875 C0,2.702875 0.107625,2.814 0.24303125,2.814 L6.05171875,2.814 L4.2914375,4.571 C4.19759375,4.668125 4.19759375,4.82453125 4.2914375,4.91815625 C4.3885625,5.01528125 4.54496875,5.01528125 4.63859375,4.91815625 L6.81559375,2.74115625 C6.91271875,2.6473125 6.91271875,2.491125 6.81559375,2.3975 L4.63859375,0.22028125 Z" id="Path"></path>
                    </g>
                    <g id="right-arrow-copy-2" transform="translate(5.000000, 0.000000)">
                        <path d="M4.63859375,0.22028125 C4.54475,0.12315625 4.3885625,0.12315625 4.2914375,0.22028125 C4.19759375,0.314125 4.19759375,0.4703125 4.2914375,0.5639375 L6.05171875,2.32421875 L0.24303125,2.32421875 C0.107625,2.3244375 0,2.4320625 0,2.56746875 C0,2.702875 0.107625,2.814 0.24303125,2.814 L6.05171875,2.814 L4.2914375,4.571 C4.19759375,4.668125 4.19759375,4.82453125 4.2914375,4.91815625 C4.3885625,5.01528125 4.54496875,5.01528125 4.63859375,4.91815625 L6.81559375,2.74115625 C6.91271875,2.6473125 6.91271875,2.491125 6.81559375,2.3975 L4.63859375,0.22028125 Z" id="Path"></path>
                    </g>
                </g>
            </g>
        </g>
    </g>
</svg>