<?xml version="1.0" encoding="UTF-8"?>
<svg width="34px" height="25px" viewBox="0 0 34 25" version="1.1" xmlns="http://www.w3.org/2000/svg" xmlns:xlink="http://www.w3.org/1999/xlink">
    <!-- Generator: Sketch 52.5 (67469) - http://www.bohemiancoding.com/sketch -->
    <title>inecofriend</title>
    <desc>Created with Sketch.</desc>
    <g id="Page-2" stroke="none" stroke-width="1" fill="none" fill-rule="evenodd">
        <g id="4-versia" transform="translate(-868.000000, -187.000000)" fill="#000000">
            <path d="M897.436408,199.824591 C898.418823,198.881444 899.034261,197.558824 899.034261,196.092697 C899.034261,193.237553 896.711377,190.914668 893.856232,190.914668 C891.001087,190.914668 888.678203,193.237553 888.678203,196.092697 C888.678203,197.570604 889.303993,198.902506 890.300331,199.846724 C889.20261,200.392907 888.23733,201.185051 887.48374,202.16818 C886.611275,201.399597 885.62172,200.760599 884.539349,200.278316 C886.201102,198.901435 887.261697,196.823083 887.261697,194.50127 C887.261697,190.365273 883.896781,187 879.760427,187 C875.624072,187 872.259156,190.364916 872.259156,194.50127 C872.259156,196.824511 873.321179,198.903934 874.984717,200.281171 C870.81195,202.143905 868,206.35237 868,210.989571 C868,211.38368 868.319856,211.703536 868.713965,211.703536 C869.108073,211.703536 869.427929,211.38368 869.427929,210.989571 C869.427929,206.589764 872.309491,202.62833 876.469763,201.231458 C877.46503,201.720167 878.579529,202.00254 879.761141,202.00254 C880.943823,202.00254 882.059393,201.71981 883.055731,201.230031 C887.200653,202.611909 890.073647,206.577626 890.073647,210.989571 C890.073647,211.38368 890.393503,211.703536 890.787611,211.703536 C891.18172,211.703536 891.501576,211.38368 891.501576,210.989571 C891.501576,208.054105 890.38208,205.292133 888.511849,203.186651 C889.315059,202.077864 890.433128,201.245381 891.71648,200.801652 C892.369757,201.099732 893.093003,201.27037 893.856589,201.27037 C894.63124,201.27037 895.363768,201.094734 896.024186,200.788443 C898.673352,201.682327 900.507884,204.222614 900.507884,207.048129 C900.507884,207.442237 900.82774,207.762094 901.221849,207.762094 C901.615957,207.762094 901.935813,207.442237 901.935813,207.048129 C901.935813,203.963444 900.137693,201.153636 897.436408,199.824591 L897.436408,199.824591 Z M877.077347,199.940967 C876.977035,199.839584 876.849236,199.771044 876.709298,199.743556 C874.905467,198.689387 873.6878,196.737051 873.6878,194.500913 C873.6878,191.152062 876.412289,188.427572 879.761141,188.427572 C883.109992,188.427572 885.834481,191.152062 885.834481,194.500913 C885.834481,196.750259 884.602535,198.713305 882.780854,199.76319 C882.68197,199.791749 882.59094,199.841369 882.513118,199.908482 C881.685989,200.331149 880.752481,200.574611 879.761498,200.574611 C878.796931,200.574611 877.888054,200.342929 877.077347,199.940967 L877.077347,199.940967 Z M892.122011,199.414061 C892.10202,199.402638 892.081672,199.392999 892.060611,199.383361 C890.897205,198.74579 890.106132,197.509917 890.106132,196.092341 C890.106132,194.024342 891.788233,192.342241 893.856232,192.342241 C895.924231,192.342241 897.606331,194.024342 897.606331,196.092341 C897.606331,198.159982 895.924231,199.84244 893.856232,199.84244 C893.230799,199.84244 892.641421,199.686439 892.122011,199.414061 L892.122011,199.414061 Z" id="inecofriend"></path>
        </g>
    </g>
</svg>