<?xml version="1.0" encoding="UTF-8"?>
<svg width="17px" height="17px" viewBox="0 0 17 17" version="1.1" xmlns="http://www.w3.org/2000/svg" xmlns:xlink="http://www.w3.org/1999/xlink">
    <!-- Generator: Sketch 52.5 (67469) - http://www.bohemiancoding.com/sketch -->
    <title>Shape</title>
    <desc>Created with Sketch.</desc>
    <g id="Page-2" stroke="none" stroke-width="1" fill="none" fill-rule="evenodd">
        <path d="M14.6512224,9.38681102 C14.6512224,9.13080709 14.7365571,8.87480315 14.7365571,8.53346457 C14.7365571,8.19212598 14.7365571,7.93612205 14.6512224,7.68011811 L16.44325,6.22942913 C16.6139193,6.05875984 16.6139193,5.88809055 16.5285846,5.71742126 L14.8218917,2.73070866 C14.7365571,2.64537402 14.5659213,2.56003937 14.3098839,2.64537402 L12.1765177,3.49872047 C11.7498445,3.15738189 11.2378366,2.90137795 10.7258287,2.64537402 L10.3844902,0.426673228 C10.4698248,0.170669291 10.2137874,0 10.0431516,0 L6.62976575,0 C6.45906299,0 6.20309252,0.170669291 6.20309252,0.341338583 L5.86175394,2.64537402 C5.34974606,2.81604331 4.92307283,3.15738189 4.41106496,3.49872047 L2.36303346,2.64537402 C2.10702953,2.56003937 1.93636024,2.64537402 1.76565748,2.81604331 L0.0589645669,5.80275591 C-0.0263700787,5.88809055 0.0589645669,6.14409449 0.229633858,6.31476378 L2.02166142,7.68011811 C2.02166142,7.93612205 1.93632677,8.19212598 1.93632677,8.53346457 C1.93632677,8.87480315 1.93632677,9.13080709 2.02166142,9.38681102 L0.229633858,10.8375 C0.0589645669,11.0082028 0.0589645669,11.1788386 0.144299213,11.3495413 L1.85099213,14.3362539 C1.93632677,14.4215886 2.1069626,14.5069232 2.363,14.4215886 L4.49636614,13.5682421 C4.92303937,13.9095807 5.43504724,14.1655846 5.94705512,14.4215886 L6.2883937,16.6402894 C6.2883937,16.8109587 6.45906299,16.981628 6.71506693,16.981628 L10.1284528,16.981628 C10.2991555,16.981628 10.555126,16.8109252 10.555126,16.6402894 L10.8964646,14.4215886 C11.4084724,14.1655846 11.9204803,13.9095807 12.3471535,13.5682421 L14.4805197,14.4215886 C14.6512224,14.5069232 14.9071929,14.4215886 14.992561,14.2508858 L16.6992539,11.2641732 C16.7845886,11.0935039 16.7845886,10.8375 16.6138858,10.7521654 L14.6512224,9.38681102 Z M8.33645866,11.5201772 C6.71510039,11.5201772 5.34974606,10.1548228 5.34974606,8.53346457 C5.34974606,6.9121063 6.71510039,5.54675197 8.33645866,5.54675197 C9.95781693,5.54675197 11.3231713,6.9121063 11.3231713,8.53346457 C11.3231713,10.1548228 9.95781693,11.5201772 8.33645866,11.5201772 Z" id="Shape" fill="#4A4A4A" fill-rule="nonzero"></path>
    </g>
</svg>