<?xml version="1.0" encoding="UTF-8"?>
<svg width="48px" height="32px" viewBox="0 0 48 32" version="1.1" xmlns="http://www.w3.org/2000/svg" xmlns:xlink="http://www.w3.org/1999/xlink">
    <!-- Generator: Sketch 52.5 (67469) - http://www.bohemiancoding.com/sketch -->
    <title>Group 7</title>
    <desc>Created with Sketch.</desc>
    <g id="inputs" stroke="none" stroke-width="1" fill="none" fill-rule="evenodd">
        <g transform="translate(-1622.000000, -1233.000000)" fill-rule="nonzero" id="Group-7">
            <g transform="translate(1622.000000, 1233.000000)">
                <path d="M3,0 L45,0 C46.6568542,-3.04359188e-16 48,1.34314575 48,3 L48,29 C48,30.6568542 46.6568542,32 45,32 L3,32 C1.34314575,32 2.02906125e-16,30.6568542 0,29 L0,3 C-2.02906125e-16,1.34314575 1.34314575,3.04359188e-16 3,0 Z" id="Rectangle" fill="#F1F1F1"></path>
                <g id="Group" transform="translate(6.000000, 10.000000)">
                    <path d="M12.7820279,0.345171443 L14.5895717,11.5349877 L17.4788654,11.5349877 L15.6714869,0.345171443 L12.7820279,0.345171443 Z M26.1518695,11.2603362 C25.5805878,11.4849158 24.682104,11.7299869 23.5628414,11.7299869 C20.706268,11.7299869 18.6954623,10.2113064 18.6787717,8.03689971 C18.6605938,6.42865178 20.1136686,5.53149005 21.2091347,4.99689469 C22.3350074,4.44891379 22.7132728,4.09824568 22.7088109,3.60826879 C22.701044,2.85884377 21.8101619,2.51544681 20.9794322,2.51544681 C19.822657,2.51544681 19.208079,2.68450123 18.2578708,3.1022623 L17.8862155,3.28040567 L17.4821705,0.77565704 C18.1559094,0.463988773 19.404896,0.19346865 20.7011451,0.179256841 C23.7370188,0.179256841 25.7096508,1.67942891 25.7327864,4.00140707 C25.7431974,5.27683428 24.9732809,6.24373301 23.3058721,7.04190784 C22.2961727,7.56063885 21.6764718,7.90436631 21.6835778,8.42954222 C21.6842387,8.89473107 22.207101,9.39247489 23.3387576,9.39247489 C24.283843,9.40767821 24.9679927,9.19003924 25.5011008,8.96265031 L25.760549,8.83457877 L26.1518695,11.2603362 Z M33.5636582,11.5235852 L31.3307517,11.5235852 C30.6381738,11.5235852 30.1197733,11.3256113 29.8163677,10.5960168 L25.5255583,0.341205357 L28.5602752,0.341205357 C28.5602752,0.341205357 29.0553751,1.72074231 29.1677474,2.02348688 C29.4987503,2.02348688 32.4475354,2.01770301 32.8684362,2.01770301 C32.9550292,1.62720878 33.2202611,0.341205357 33.2202611,0.341205357 L35.9019964,0.341205357 L33.5636582,11.5235852 Z M10.3580883,11.5255682 L7.53010364,3.89680156 L7.22719381,5.44754124 C6.70020012,7.23426302 5.05972775,9.17086982 3.2247519,10.1412389 L5.81196208,0.354921405 L8.86981448,0.356739195 L13.4199068,11.5255682 L10.3580883,11.5255682 Z M29.9991382,4.31241434 C30.2385907,4.95558131 31.1501295,7.44000374 31.1501295,7.44000374 C31.1332736,7.4105886 31.38826,8.08829357 31.5341788,8.50770718 L31.729178,7.54262621 C31.729178,7.54262621 32.2836038,4.87179773 32.3977941,4.31241434 L29.9991382,4.31241434 Z" id="Combined-Shape" fill="#2B3894" transform="translate(19.563374, 5.954622) scale(-1, 1) rotate(-180.000000) translate(-19.563374, -5.954622) "></path>
                    <path d="M4.90488513,6.4617025 L0.245560219,6.4617025 L0.207056133,6.22985172 C3.83271986,5.30294435 6.23154094,3.065576 7.22719381,0.376073872 L6.21468507,5.51760874 C6.04001203,6.2267119 5.532353,6.43691446 4.90488513,6.4617025" id="path30" fill="#F79510" transform="translate(3.717125, 3.418888) scale(-1, 1) rotate(-180.000000) translate(-3.717125, -3.418888) "></path>
                </g>
            </g>
        </g>
    </g>
</svg>